<svg width="20" height="20" viewBox="0 0 20 20" fill="none" xmlns="http://www.w3.org/2000/svg">
<path d="M8.63042 0.59394L6.78798 0.104584C5.13518 -0.334654 3.43915 0.649946 2.99991 2.30274L2.53906 4.03906C4.02284 2.20153 6.17678 0.930001 8.63042 0.59394Z" fill="#1C212D"/>
<path d="M0.55561 11.5117L0.104584 13.2097C-0.334654 14.8625 0.649946 16.5585 2.30274 16.9978L4.06755 17.4665C2.23198 16.023 0.941787 13.9192 0.556593 11.5117H0.55561Z" fill="#1C212D"/>
<path d="M17.6977 3.00031L15.7256 2.47656C17.685 3.98786 19.0371 6.24792 19.3545 8.82832L19.8959 6.78837C20.3351 5.13557 19.3505 3.43955 17.6977 3.00031Z" fill="#1C212D"/>
<path d="M11.3252 19.393L13.2119 19.8941C14.8646 20.3334 16.5607 19.3488 16.9999 17.696L17.5315 15.6953C16.0625 17.6517 13.8565 19.0206 11.3252 19.393Z" fill="#1C212D"/>
<path d="M9.9989 1.32812C5.21052 1.32812 1.32812 5.21052 1.32812 9.9989C1.32812 14.7873 5.21052 18.6697 9.9989 18.6697C14.7873 18.6697 18.6697 14.7873 18.6697 9.9989C18.6697 5.21052 14.7873 1.32812 9.9989 1.32812ZM5.08867 5.65466C5.34711 4.3114 6.64615 3.43194 7.98941 3.69038C9.33268 3.94881 10.2121 5.24786 9.9537 6.59112C9.69527 7.93438 8.39622 8.81384 7.05296 8.55541C5.7097 8.29697 4.83024 6.99793 5.08867 5.65466ZM8.692 13.1463C8.43357 14.4895 7.13452 15.369 5.79126 15.1106C4.448 14.8521 3.56854 13.5531 3.82697 12.2098C4.0854 10.8666 5.38445 9.98711 6.72771 10.2455C8.07098 10.504 8.95043 11.803 8.692 13.1463ZM9.74341 11.1417C9.14597 11.0267 8.75587 10.4499 8.87083 9.85248C8.9858 9.25504 9.56261 8.86494 10.1601 8.9799C10.7575 9.09487 11.1476 9.67168 11.0326 10.2691C10.9177 10.8666 10.3409 11.2567 9.74341 11.1417ZM14.9082 14.3441C14.6497 15.6874 13.3507 16.5668 12.0074 16.3084C10.6641 16.05 9.78469 14.7509 10.0431 13.4077C10.3016 12.0644 11.6006 11.1849 12.9439 11.4434C14.2871 11.7018 15.1666 13.0008 14.9082 14.3441ZM13.2691 9.75324C11.9258 9.49481 11.0464 8.19576 11.3048 6.8525C11.5633 5.50923 12.8623 4.62978 14.2056 4.88821C15.5488 5.14664 16.4283 6.44569 16.1699 7.78895C15.9114 9.13221 14.6124 10.0117 13.2691 9.75324Z" fill="#1C212D"/>
</svg>
