<svg width="512" height="512" viewBox="0 0 512 512" fill="none" xmlns="http://www.w3.org/2000/svg">
<g clip-path="url(#clip0_1921_12231)">
<path d="M291.938 481.225C292.278 479.131 292.435 477.011 292.407 474.889L292.407 113.683L296.07 121.559C299.715 129.258 304.673 136.262 310.724 142.257L412.015 243.548C424.75 256.889 445.236 259.13 460.554 248.86C476.878 236.908 480.422 213.985 468.469 197.661C467.503 196.342 466.45 195.089 465.316 193.91L282.15 10.7437C267.851 -3.57081 244.657 -3.5834 230.342 10.715L230.314 10.7437L47.147 193.91C32.8611 208.236 32.8932 231.431 47.2191 245.718C48.3468 246.842 49.5464 247.892 50.8103 248.86C66.1287 259.13 86.6148 256.889 99.3494 243.548L200.824 142.44C206.204 137.066 210.716 130.886 214.195 124.124L219.14 113.134L219.14 472.873C218.446 491.587 231.518 508.006 249.912 511.521C269.883 514.76 288.698 501.196 291.938 481.225Z" fill="black"/>
</g>
<defs>
<clipPath id="clip0_1921_12231">
<rect width="512" height="512" fill="white" transform="translate(512) rotate(90)"/>
</clipPath>
</defs>
</svg>
