<svg width="32" height="34" viewBox="0 0 32 34" fill="none" xmlns="http://www.w3.org/2000/svg">
<path d="M15.2956 1.24052L15.2944 1.24165L8.74193 7.82583C8.25107 8.31909 8.2529 9.11691 8.74622 9.6079C9.23948 10.0988 10.0373 10.0969 10.5282 9.60368L14.9274 5.18306L14.9274 31.8689C14.9274 32.5649 15.4916 33.129 16.1875 33.129C16.8834 33.129 17.4476 32.5649 17.4476 31.8689L17.4476 5.18313L21.8468 9.60362C22.3377 10.0969 23.1355 10.0988 23.6288 9.60784C24.1222 9.11685 24.1239 8.31897 23.6331 7.82577L17.0806 1.24159L17.0795 1.24046C16.5869 0.746946 15.7865 0.748521 15.2956 1.24052Z" fill="black"/>
</svg>
