<svg width="22" height="22" viewBox="0 0 22 22" fill="none" xmlns="http://www.w3.org/2000/svg">
<g clip-path="url(#clip0_5580_12454)">
<path d="M9.75 0C11.2688 0 12.5 1.23122 12.5 2.75H11C11 2.05964 10.4404 1.5 9.75 1.5V0ZM9.75 0V1.5C9.05964 1.5 8.5 2.05964 8.5 2.75H7C7 1.23122 8.23122 0 9.75 0ZM7 2.75H8.5C8.5 3.44036 9.05964 4 9.75 4V5.5C8.23122 5.5 7 4.26878 7 2.75ZM11 2.75H12.5C12.5 4.26878 11.2688 5.5 9.75 5.5V4C10.4404 4 11 3.44036 11 2.75Z" fill="#FF5128"/>
<path d="M10.75 20.7639C10.5705 20.7639 10.3909 20.742 10.2163 20.6994L10.4473 20.2373C10.5472 20.2549 10.6486 20.2639 10.75 20.2639C10.8514 20.2639 10.9528 20.2549 11.0527 20.2373L11.2837 20.6994C11.1091 20.742 10.9295 20.7639 10.75 20.7639ZM9.29656 20.3028L3.74377 17.5264C3.12942 17.2192 2.70143 16.6636 2.55529 16.0139H3.07187C3.20683 16.4711 3.52499 16.858 3.96737 17.0792L9.52016 19.8556L9.29656 20.3028ZM12.2034 20.3028L11.9798 19.8556L17.5326 17.0792C17.975 16.858 18.2932 16.4711 18.4281 16.0139H18.9447C18.7986 16.6636 18.3706 17.2192 17.7562 17.5264L12.2034 20.3028ZM19 15.0139H18.5V9.25H19V15.0139ZM3 15.0139H2.5V9.25H3V15.0139Z" fill="#FF5128"/>
<path d="M10.75 21.2639C10.3286 21.2639 9.90726 21.1672 9.52016 20.9736L10.191 19.632C10.5429 19.8079 10.9571 19.8079 11.309 19.632L11.9798 20.9736C11.5927 21.1672 11.1714 21.2639 10.75 21.2639ZM11.9798 20.9736L11.309 19.632L17.309 16.632L17.9798 17.9736L11.9798 20.9736ZM9.52016 20.9736L3.52016 17.9736L4.19098 16.632L10.191 19.632L9.52016 20.9736ZM17.9798 17.9736L17.309 16.632C17.7325 16.4202 18 15.9874 18 15.5139H19.5C19.5 16.5556 18.9115 17.5078 17.9798 17.9736ZM3.52016 17.9736C2.58851 17.5078 2 16.5555 2 15.5139H3.5C3.5 15.9874 3.7675 16.4202 4.19098 16.632L3.52016 17.9736ZM19.5 15.5139H18V8.75H19.5V15.5139ZM3.5 15.5139H2V8.75H3.5V15.5139Z" fill="#FF5128"/>
<path d="M10.1902 8.75L3.08461 5.19722L3.19641 4.97361L2.52539 4.63809C2.54905 4.59066 2.58775 4.55122 2.63739 4.5264L4.19019 3.75L4.4138 4.19722L4.20264 4.30279L3.30822 4.75L4.20264 5.19721L10.4138 8.30279L10.302 8.52639L10.1902 8.75ZM11.3082 8.75L11.1964 8.52639L11.0846 8.30279L17.2958 5.19721L18.1902 4.75L17.2958 4.30279L17.0846 4.19721L17.3082 3.75L18.861 4.52639C18.9107 4.55122 18.9494 4.59066 18.973 4.6381L18.302 4.9736L18.4138 5.19721L11.3082 8.75Z" fill="#FF5128"/>
<path d="M4.74941 3C5.02452 3.00001 5.28942 3.15195 5.42082 3.41475C5.60606 3.78523 5.45589 4.23574 5.08541 4.42098L4.41459 3.07934C4.52227 3.0255 4.63669 3 4.74941 3ZM16.7506 3C16.8633 3.00001 16.9777 3.02551 17.0854 3.07934L16.4146 4.42098C16.0441 4.23574 15.8939 3.78523 16.0792 3.41475C16.2106 3.15193 16.4754 2.99998 16.7506 3ZM4.41459 3.07934L5.08541 4.42098L4.42705 4.75016L3.08541 4.07934L2.75 4.75016L2.41459 4.07934L4.41459 3.07934ZM17.0854 3.07934L19.0854 4.07934L18.75 4.75016L18.4146 4.07934L17.073 4.75016L16.4146 4.42098L17.0854 3.07934ZM2.41459 4.07934L2.75 4.75016L2.41459 5.42098C2.1605 5.29394 2 5.03424 2 4.75016C2 4.46608 2.1605 4.20638 2.41459 4.07934ZM19.0854 4.07934C19.3395 4.20638 19.5 4.46608 19.5 4.75016C19.5 5.03424 19.3395 5.29394 19.0854 5.42098L18.75 4.75016L19.0854 4.07934ZM17.073 4.75016L18.4146 5.42098L18.75 4.75016L19.0854 5.42098L11.0854 9.42098L10.75 8.75016L11.0854 8.07934L10.75 7.91164L17.073 4.75016ZM2.75 4.75016L3.08541 5.42098L4.42705 4.75016L10.75 7.91164L10.4146 8.07934L10.75 8.75016L10.4146 9.42098L2.41459 5.42098L2.75 4.75016ZM10.75 8.75016L11.0854 9.42098C10.8743 9.52654 10.6257 9.52654 10.4146 9.42098L10.75 8.75016Z" fill="#FF5128"/>
<path d="M12.7505 12.0001C12.6664 12.0001 12.5885 11.9584 12.542 11.8887L10.8193 9.3047L11.0274 9.16602L10.6113 8.54199C10.6199 8.53627 10.6289 8.53106 10.6382 8.52639L18.191 4.75L18.3028 4.97361L18.4146 5.19721L18.2696 5.2697L11.6217 8.59366L11.1151 8.84696L11.4293 9.31822L12.5908 11.0604L12.8356 11.4277L13.2304 11.2303L19.8783 7.90634L20.191 7.75L20.3028 7.9736L20.4146 8.19721L12.8618 11.9736C12.8267 11.9912 12.7892 12.0001 12.7505 12.0001ZM20.2646 7.47265L20.0707 7.18178L18.9092 5.43957L18.8193 5.30471L19.0274 5.16602L19.2354 5.02735L20.6806 7.1953L20.4726 7.33397L20.2646 7.47265Z" fill="#FF5128"/>
<path d="M12.7505 12.5002C12.5066 12.5002 12.2693 12.3811 12.126 12.1661L12.75 11.7501L13.0854 12.4209C12.9782 12.4745 12.8636 12.5002 12.7505 12.5002ZM13.0854 12.4209L12.75 11.7501L13.374 11.3341L13.0068 10.7832L19.6547 7.45922L20.126 8.16612L20.75 7.75008L21.0854 8.42091L13.0854 12.4209ZM12.126 12.1661L10.126 9.16612L10.75 8.75009L11.0854 9.42091L11.8453 9.04096L13.0068 10.7832L12.4146 11.0793L12.75 11.7501L12.126 12.1661ZM10.126 9.16612C10.0066 8.98712 9.96992 8.76551 10.0251 8.55759C10.0803 8.34967 10.2222 8.17548 10.4146 8.07927L10.75 8.75009L10.126 9.16612ZM11.8453 9.04096L11.374 8.33406L10.75 8.75009L10.4146 8.07927L18.4146 4.07927L18.75 4.75009L18.126 5.16612L18.4932 5.717L11.8453 9.04096ZM21.0854 8.42091L20.75 7.75008L21.374 7.33406C21.4934 7.51306 21.5301 7.73467 21.4749 7.94259C21.4197 8.15051 21.2778 8.3247 21.0854 8.42091ZM20.75 7.75008L20.4146 7.07927L19.6547 7.45922L18.4932 5.717L19.0854 5.42091L18.75 4.75009L19.374 4.33406L21.374 7.33406L20.75 7.75008ZM18.75 4.75009L18.4146 4.07927C18.7529 3.91011 19.1642 4.01934 19.374 4.33406L18.75 4.75009Z" fill="#FF5128"/>
<path d="M8.74912 12.0001C8.71037 12.0001 8.67291 11.9912 8.63777 11.9736L1.08498 8.19721L1.27843 7.81031L1.30859 7.75L1.39126 7.79134L8.26918 11.2303L8.66397 11.4277L8.90881 11.0604L10.0703 9.31822L10.3845 8.84696L9.87787 8.59366L3.1747 5.24207L3.08498 5.19721L3.19678 4.97361L3.30859 4.75L10.8614 8.52639C10.9255 8.55845 10.9728 8.61656 10.9912 8.68582C11.0096 8.7551 10.9973 8.82904 10.9576 8.88869L8.95758 11.8887C8.91108 11.9584 8.83315 12.0001 8.74912 12.0001ZM1.1213 7.1595L0.999813 7.11599L0.896484 7.07898L2.26422 5.02737L2.47222 5.16603L2.64041 5.27816L2.56208 5.37517L1.22586 7.03001L1.1213 7.1595Z" fill="#FF5128"/>
<path d="M8.74957 12.5002C8.6364 12.5002 8.52186 12.4745 8.41461 12.4209L8.75002 11.7501L9.37406 12.1661C9.23076 12.3811 8.99341 12.5002 8.74957 12.5002ZM8.41461 12.4209L0.414622 8.42091L0.831671 7.5868L1.28759 7.75009L1.61532 7.34421L8.49324 10.7832L8.12598 11.3341L8.75002 11.7501L8.41461 12.4209ZM9.37406 12.1661L8.75002 11.7501L9.08543 11.0793L8.49324 10.7832L9.65471 9.04096L10.4146 9.42091L10.75 8.75009L11.3741 9.16612L9.37406 12.1661ZM11.3741 9.16612L10.75 8.75009L11.0854 8.07927C11.2778 8.17548 11.4197 8.34967 11.4749 8.55759C11.5301 8.76551 11.4934 8.98712 11.3741 9.16612ZM9.65471 9.04096L2.95155 5.68938L3.37406 5.16612L2.75002 4.7501L3.08543 4.07927L11.0854 8.07927L10.75 8.75009L10.126 8.33406L9.65471 9.04096ZM0.414622 8.42091C0.222222 8.3247 0.080322 8.15051 0.025122 7.94259C-0.030078 7.73467 0.00662204 7.51306 0.126022 7.33406L0.750022 7.75009L0.414622 8.42091ZM0.831671 7.5868L0.126022 7.33406L2.12598 4.33408L2.75002 4.7501L2.41461 5.42091L2.95155 5.68938L1.61532 7.34421L1.08543 7.07927L0.831671 7.5868ZM2.75002 4.7501L2.12598 4.33408C2.33579 4.01936 2.74712 3.91011 3.08543 4.07927L2.75002 4.7501Z" fill="#FF5128"/>
<path d="M12.251 5.50096C12.2123 5.50096 12.1379 5.49144 12.0742 5.42774L11.4277 4.78129L11.7813 4.42773L12.4277 5.07418C12.5252 5.17166 12.5252 5.33026 12.4277 5.42774C12.364 5.49144 12.2896 5.50096 12.251 5.50096Z" fill="#FF5128"/>
<path d="M11.25 3.5C11.4419 3.5 11.6339 3.57322 11.7803 3.71967L10.7197 4.78033C10.4268 4.48744 10.4268 4.01256 10.7197 3.71967C10.8661 3.57322 11.0581 3.5 11.25 3.5ZM11.7803 3.71967L12.7803 4.71967L11.7197 5.78033L10.7197 4.78033L11.7803 3.71967ZM12.7803 4.71967C13.0732 5.01256 13.0732 5.48744 12.7803 5.78033C12.4874 6.07322 12.0126 6.07322 11.7197 5.78033L12.7803 4.71967Z" fill="#FF5128"/>
</g>
<defs>
<clipPath id="clip0_5580_12454">
<rect width="21.5" height="21.264" fill="white"/>
</clipPath>
</defs>
</svg>
