<?xml version="1.0" encoding="utf-8"?>
<!-- Generator: Adobe Illustrator 26.4.1, SVG Export Plug-In . SVG Version: 6.00 Build 0)  -->
<svg version="1.1" id="Layer_1" xmlns="http://www.w3.org/2000/svg" xmlns:xlink="http://www.w3.org/1999/xlink" x="0px" y="0px"
	 viewBox="0 0 24 24" style="enable-background:new 0 0 24 24;" xml:space="preserve">
<style type="text/css">
	.st0{fill:#31394E;}
</style>
<g>
	<path class="st0" d="M8,22.8c-0.3,0-0.6-0.2-0.7-0.5c-0.1-0.3-0.1-0.6,0.2-0.8C7.6,21.3,7.9,21,8,20.7c-1.2-0.1-2-0.4-2.7-1
		c-0.6-0.6-0.9-1.4-1-2.4c-0.9,0-1.5,0-2-0.3c-0.3-0.2-0.6-0.5-0.8-0.8C1.2,15.6,1.2,15,1.2,14c0-1,0-1.6,0.3-2.1
		c0.2-0.3,0.5-0.6,0.8-0.8c0.5-0.3,1-0.3,2-0.3c0.1-1,0.4-1.8,1-2.4C6.4,7.2,8.1,7.2,11,7.2h0.2V5.6c-0.3-0.1-0.6-0.3-0.8-0.5
		c-0.4-0.4-0.7-1-0.7-1.6s0.2-1.2,0.7-1.6c0.8-0.9,2.3-0.9,3.2,0c0.4,0.4,0.7,1,0.7,1.6S14,4.7,13.6,5.1c-0.2,0.2-0.5,0.4-0.8,0.5
		v1.6H13c2.9,0,4.6,0,5.7,1.1c0.6,0.6,0.9,1.4,1,2.4c0.9,0,1.5,0,2,0.3c0.3,0.2,0.6,0.5,0.8,0.8c0.3,0.5,0.3,1.1,0.3,2.1
		c0,1,0,1.6-0.3,2.1c-0.2,0.3-0.5,0.6-0.8,0.8c-0.5,0.3-1,0.3-2,0.3c-0.1,1-0.4,1.8-1,2.4c-1.1,1.1-2.7,1.1-5.7,1.1h-0.5
		C12,21.5,10.9,22.8,8,22.8z M11,8.8c-2.6,0-3.9,0-4.6,0.7c-0.7,0.7-0.7,2-0.7,4.6s0,3.9,0.7,4.6C6.8,19,7.5,19.2,9,19.2
		c0.4,0,0.7,0.3,0.7,0.8c0,0.4-0.1,0.8-0.2,1.1c1.5-0.4,1.8-1.3,1.8-1.3c0.1-0.3,0.4-0.6,0.7-0.6h1c2.6,0,3.9,0,4.6-0.7
		c0.7-0.7,0.7-2,0.7-4.6s0-3.9-0.7-4.6c-0.7-0.7-2-0.7-4.6-0.7H11z M19.7,12.2c0,0.5,0,1.1,0,1.8s0,1.2,0,1.8c0.6,0,1,0,1.1-0.1
		c0.1-0.1,0.2-0.2,0.3-0.3c0.1-0.2,0.1-0.7,0.1-1.4c0-0.7,0-1.2-0.1-1.4c-0.1-0.1-0.2-0.2-0.3-0.3C20.7,12.3,20.3,12.3,19.7,12.2z
		 M4.3,12.2c-0.6,0-1,0-1.1,0.1c-0.1,0.1-0.2,0.2-0.3,0.3c-0.1,0.2-0.1,0.7-0.1,1.4c0,0.7,0,1.2,0.1,1.4c0.1,0.1,0.2,0.2,0.3,0.3
		c0.2,0.1,0.5,0.1,1.1,0.1c0-0.5,0-1.1,0-1.8S4.2,12.8,4.3,12.2z M12,2.8c-0.2,0-0.4,0.1-0.5,0.2s-0.2,0.3-0.2,0.5s0.1,0.4,0.2,0.5
		c0.3,0.3,0.8,0.3,1.1,0c0.1-0.1,0.2-0.3,0.2-0.5S12.7,3.1,12.5,3S12.2,2.8,12,2.8z M15,13.8c-0.4,0-0.8-0.3-0.8-0.8v-1
		c0-0.4,0.3-0.8,0.8-0.8s0.8,0.3,0.8,0.8v1C15.8,13.4,15.4,13.8,15,13.8z M9,13.8c-0.4,0-0.8-0.3-0.8-0.8v-1c0-0.4,0.3-0.8,0.8-0.8
		s0.8,0.3,0.8,0.8v1C9.8,13.4,9.4,13.8,9,13.8z"/>
</g>
<g>
	<path class="st0" d="M12,17.8c-1.5,0-2.4-0.6-2.4-0.6c-0.3-0.2-0.4-0.7-0.2-1.1c0.2-0.3,0.7-0.4,1-0.2c0,0,0.5,0.4,1.6,0.4
		c1,0,1.5-0.3,1.6-0.4c0.3-0.2,0.8-0.2,1,0.2s0.2,0.8-0.2,1C14.4,17.2,13.5,17.8,12,17.8z"/>
</g>
</svg>
