<svg width="24" height="24" viewBox="0 0 24 24" fill="none" xmlns="http://www.w3.org/2000/svg">
<path d="M9.77814 3.75H10.8891V2.25H9.77814V3.75ZM2.75014 14.25V10.875H1.25014V14.25H2.75014ZM1.25014 14.25C1.24829 14.6421 1.3237 15.0308 1.47206 15.3938C1.62043 15.7567 1.83883 16.087 2.11481 16.3655C2.39078 16.6441 2.71893 16.8656 3.0805 17.0174C3.44208 17.1691 3.83001 17.2482 4.22214 17.25V15.75C4.02699 15.7482 3.83411 15.7079 3.65452 15.6315C3.47493 15.5552 3.31215 15.4442 3.17546 15.3049C3.03877 15.1656 2.93085 15.0007 2.85787 14.8197C2.7849 14.6387 2.74829 14.4451 2.75014 14.25H1.25014ZM16.8061 9.75C16.817 11.3303 16.1998 12.8502 15.0902 13.9753C13.9805 15.1005 12.4694 15.7389 10.8891 15.75V17.25C12.8672 17.2389 14.7599 16.4425 16.1508 15.036C17.5418 13.6295 18.317 11.7281 18.3061 9.75H16.8061ZM9.77814 2.25C7.50354 2.26296 5.32724 3.17892 3.72795 4.7964C2.12866 6.41388 1.23737 8.6004 1.25014 10.875H2.75014C2.73736 8.99822 3.47061 7.19323 4.7886 5.85705C6.10658 4.52087 7.90136 3.76295 9.77814 3.75V2.25ZM22.7501 18.75V15.375H21.2501V18.75H22.7501ZM13.1111 21.75H19.7781V20.25H13.1111V21.75ZM21.2501 18.75C21.252 18.9451 21.2154 19.1387 21.1424 19.3197C21.0694 19.5007 20.9615 19.6656 20.8248 19.8049C20.6881 19.9442 20.5253 20.0552 20.3457 20.1315C20.1662 20.2079 19.9733 20.2482 19.7781 20.25V21.75C20.1703 21.7482 20.5582 21.6691 20.9198 21.5174C21.2813 21.3656 21.6095 21.1441 21.8855 20.8655C22.1614 20.587 22.3798 20.2567 22.5282 19.8938C22.6766 19.5308 22.752 19.1421 22.7501 18.75H21.2501ZM17.0651 8.857C18.3166 9.4247 19.3773 10.3419 20.1198 11.4982C20.8622 12.6546 21.2548 14.0008 21.2501 15.375H22.7501C22.7547 13.7118 22.2787 12.0826 21.3792 10.6836C20.4797 9.28457 19.1952 8.17521 17.6801 7.489L17.0651 8.857ZM10.8891 3.75C12.2261 3.75687 13.5216 4.2148 14.5659 5.04965C15.6101 5.88449 16.3421 7.04737 16.6431 8.35L18.1031 8.005C17.7244 6.37355 16.806 4.91772 15.4967 3.87325C14.1875 2.82878 12.564 2.25683 10.8891 2.25V3.75ZM16.6431 8.35C16.7514 8.8088 16.8061 9.2786 16.8061 9.75H18.3061C18.3075 9.16089 18.2404 8.57361 18.1061 8L16.6431 8.35ZM6.11614 16.75C6.61957 18.2069 7.56396 19.471 8.81828 20.367C10.0726 21.2629 11.5747 21.7463 13.1161 21.75V20.25C11.886 20.2449 10.688 19.8571 9.68832 19.1403C8.68861 18.4235 7.93678 17.4134 7.53714 16.25L6.11614 16.75ZM10.8891 15.75H6.82414V17.25H10.8891V15.75ZM6.82414 15.75H4.22414V17.25H6.82414V15.75Z" fill="#31394E"/>
<path d="M11 10C11 10.1978 10.9414 10.3911 10.8315 10.5556C10.7216 10.72 10.5654 10.8482 10.3827 10.9239C10.2 10.9996 9.99889 11.0194 9.80491 10.9808C9.61093 10.9422 9.43275 10.847 9.29289 10.7071C9.15304 10.5673 9.0578 10.3891 9.01922 10.1951C8.98063 10.0011 9.00043 9.80004 9.07612 9.61732C9.15181 9.43459 9.27998 9.27841 9.44443 9.16853C9.60888 9.05865 9.80222 9 10 9C10.2652 9 10.5196 9.10536 10.7071 9.29289C10.8946 9.48043 11 9.73478 11 10Z" fill="#31394E"/>
<path d="M15 10C15 10.1978 14.9414 10.3911 14.8315 10.5556C14.7216 10.72 14.5654 10.8482 14.3827 10.9239C14.2 10.9996 13.9989 11.0194 13.8049 10.9808C13.6109 10.9422 13.4327 10.847 13.2929 10.7071C13.153 10.5673 13.0578 10.3891 13.0192 10.1951C12.9806 10.0011 13.0004 9.80004 13.0761 9.61732C13.1518 9.43459 13.28 9.27841 13.4444 9.16853C13.6089 9.05865 13.8022 9 14 9C14.2652 9 14.5196 9.10536 14.7071 9.29289C14.8946 9.48043 15 9.73478 15 10Z" fill="#31394E"/>
<path d="M7 10C7 10.1978 6.94135 10.3911 6.83147 10.5556C6.72159 10.72 6.56541 10.8482 6.38268 10.9239C6.19996 10.9996 5.99889 11.0194 5.80491 10.9808C5.61093 10.9422 5.43275 10.847 5.29289 10.7071C5.15304 10.5673 5.0578 10.3891 5.01922 10.1951C4.98063 10.0011 5.00043 9.80004 5.07612 9.61732C5.15181 9.43459 5.27998 9.27841 5.44443 9.16853C5.60888 9.05865 5.80222 9 6 9C6.26522 9 6.51957 9.10536 6.70711 9.29289C6.89464 9.48043 7 9.73478 7 10Z" fill="#31394E"/>
</svg>
