<svg width="512" height="512" viewBox="0 0 512 512" fill="none" xmlns="http://www.w3.org/2000/svg">
<g clip-path="url(#clip0_1674_10943)">
<path d="M256 512C114.848 512 0 397.152 0 256C0 114.848 114.848 0 256 0C397.152 0 512 114.848 512 256C512 397.152 397.152 512 256 512ZM256 32C132.48 32 32 132.48 32 256C32 379.52 132.48 480 256 480C379.52 480 480 379.52 480 256C480 132.48 379.52 32 256 32ZM338.016 354.4C335.908 354.403 333.821 353.988 331.874 353.181C329.927 352.374 328.159 351.189 326.672 349.696L255.952 278.624L184.896 349.36C181.882 352.346 177.809 354.018 173.566 354.009C169.323 354 165.257 352.311 162.256 349.312C159.266 346.3 157.592 342.226 157.601 337.982C157.61 333.738 159.301 329.671 162.304 326.672L233.376 255.952L162.64 184.896C159.79 181.858 158.235 177.83 158.306 173.665C158.377 169.501 160.067 165.527 163.019 162.588C165.97 159.649 169.951 157.975 174.116 157.922C178.281 157.869 182.303 159.441 185.328 162.304L256.048 233.376L327.104 162.64C330.142 159.79 334.17 158.235 338.335 158.306C342.499 158.377 346.473 160.067 349.412 163.019C352.351 165.97 354.025 169.951 354.078 174.116C354.131 178.281 352.559 182.303 349.696 185.328L278.624 256.048L349.36 327.104C351.578 329.35 353.083 332.201 353.688 335.3C354.292 338.398 353.968 341.606 352.756 344.521C351.545 347.436 349.5 349.928 346.878 351.686C344.255 353.443 341.173 354.387 338.016 354.4Z" fill="black"/>
</g>
<defs>
<clipPath id="clip0_1674_10943">
<rect width="512" height="512" fill="white"/>
</clipPath>
</defs>
</svg>
