<svg width="144" height="144" viewBox="0 0 144 144" fill="none" xmlns="http://www.w3.org/2000/svg">
<g clip-path="url(#clip0_3156_11133)">
<path d="M58.5489 98.7041V45.2955C58.5489 44.6136 58.2779 43.9595 57.7957 43.4773C57.3135 42.995 56.6594 42.7241 55.9774 42.7241H2.57143C1.88944 42.7241 1.23539 42.995 0.753154 43.4773C0.270918 43.9595 0 44.6136 0 45.2955V98.7041C0 99.3861 0.270918 100.04 0.753154 100.522C1.23539 101.005 1.88944 101.276 2.57143 101.276H55.9774C56.6594 101.276 57.3135 101.005 57.7957 100.522C58.2779 100.04 58.5489 99.3861 58.5489 98.7041ZM32.9143 47.867V53.3724L31.0011 51.6624C30.5297 51.241 29.9196 51.008 29.2873 51.008C28.655 51.008 28.0448 51.241 27.5734 51.6624L25.6603 53.3724V47.867H32.9143ZM53.4189 96.1327H5.14286V47.867H20.5046V59.1195C20.5046 59.616 20.6484 60.1019 20.9185 60.5185C21.1886 60.935 21.5735 61.2645 22.0268 61.467C22.4801 61.6696 22.9823 61.7366 23.4728 61.66C23.9634 61.5834 24.4212 61.3664 24.7911 61.0353L29.2757 57.029L33.7577 61.0353C34.1276 61.3664 34.5855 61.5834 35.076 61.66C35.5665 61.7366 36.0688 61.6696 36.522 61.467C36.9753 61.2645 37.3603 60.935 37.6304 60.5185C37.9005 60.1019 38.0443 59.616 38.0443 59.1195V47.867H53.406L53.4189 96.1327Z" fill="black"/>
<path d="M34.744 68.3998L27.0735 76.0704L23.8077 72.8047C23.5705 72.5591 23.2868 72.3632 22.9731 72.2284C22.6593 72.0937 22.3219 72.0227 21.9805 72.0198C21.6391 72.0168 21.3005 72.0819 20.9844 72.2112C20.6684 72.3404 20.3813 72.5314 20.1399 72.7728C19.8984 73.0143 19.7075 73.3014 19.5782 73.6174C19.4489 73.9334 19.3838 74.272 19.3868 74.6134C19.3898 74.9549 19.4607 75.2923 19.5955 75.606C19.7303 75.9197 19.9261 76.2035 20.1717 76.4407L25.2555 81.5244C25.7377 82.0065 26.3916 82.2773 27.0735 82.2773C27.7553 82.2773 28.4092 82.0065 28.8915 81.5244L38.38 72.0358C38.6256 71.7986 38.8215 71.5149 38.9563 71.2012C39.0911 70.8874 39.162 70.55 39.165 70.2086C39.1679 69.8672 39.1029 69.5285 38.9736 69.2125C38.8443 68.8965 38.6533 68.6094 38.4119 68.368C38.1705 68.1265 37.8834 67.9356 37.5673 67.8063C37.2513 67.677 36.9127 67.6119 36.5713 67.6149C36.2299 67.6179 35.8924 67.6888 35.5787 67.8236C35.265 67.9583 34.9812 68.1542 34.744 68.3998ZM114.726 42.7241C108.936 42.7241 103.275 44.4411 98.461 47.658C93.6467 50.8748 89.8943 55.4471 87.6785 60.7965C85.4627 66.1459 84.883 72.0323 86.0126 77.7112C87.1422 83.3902 89.9304 88.6066 94.0247 92.7009C98.119 96.7952 103.335 99.5834 109.014 100.713C114.693 101.843 120.58 101.263 125.929 99.0471C131.279 96.8313 135.851 93.0789 139.068 88.2646C142.284 83.4502 144.001 77.79 144.001 71.9998C143.991 64.2386 140.904 56.7981 135.416 51.3101C129.927 45.822 122.487 42.7343 114.726 42.7241ZM114.726 96.1327C109.953 96.1327 105.287 94.7173 101.318 92.0656C97.3496 89.4138 94.2565 85.6448 92.4299 81.2351C90.6033 76.8254 90.1254 71.9731 91.0566 67.2917C91.9878 62.6104 94.2862 58.3104 97.6612 54.9353C101.036 51.5603 105.336 49.2619 110.018 48.3307C114.699 47.3995 119.551 47.8774 123.961 49.704C128.371 51.5305 132.14 54.6237 134.791 58.5923C137.443 62.561 138.859 67.2268 138.859 71.9998C138.848 78.3971 136.303 84.5295 131.779 89.0531C127.255 93.5767 121.123 96.1225 114.726 96.1327Z" fill="black"/>
<path d="M114.724 58.549C116.167 58.5503 117.55 59.124 118.57 60.1442C119.59 61.1643 120.164 62.5475 120.165 63.9901C120.165 64.6721 120.436 65.3262 120.918 65.8084C121.401 66.2906 122.055 66.5616 122.737 66.5616C123.419 66.5616 124.073 66.2906 124.555 65.8084C125.037 65.3262 125.308 64.6721 125.308 63.9901C125.301 61.6363 124.509 59.352 123.058 57.4989C121.607 55.6457 119.579 54.3294 117.296 53.7584V51.7218C117.296 51.0399 117.025 50.3858 116.542 49.9036C116.06 49.4213 115.406 49.1504 114.724 49.1504C114.042 49.1504 113.388 49.4213 112.906 49.9036C112.424 50.3858 112.153 51.0399 112.153 51.7218V53.7584C109.649 54.3825 107.461 55.9013 106 58.0281C104.54 60.1549 103.908 62.7428 104.224 65.3034C104.541 67.864 105.783 70.2203 107.717 71.9277C109.652 73.6351 112.144 74.5755 114.724 74.5716C115.801 74.571 116.853 74.8898 117.748 75.4875C118.643 76.0852 119.341 76.9349 119.753 77.9293C120.165 78.9236 120.273 80.0179 120.063 81.0736C119.854 82.1293 119.335 83.099 118.574 83.8602C117.813 84.6213 116.843 85.1395 115.788 85.3494C114.732 85.5593 113.638 85.4513 112.643 85.0392C111.649 84.627 110.799 83.9292 110.202 83.034C109.604 82.1388 109.285 81.0865 109.286 80.0101C109.286 79.3281 109.015 78.6741 108.532 78.1919C108.05 77.7096 107.396 77.4387 106.714 77.4387C106.032 77.4387 105.378 77.7096 104.896 78.1919C104.414 78.6741 104.143 79.3281 104.143 80.0101C104.15 82.3636 104.941 84.6476 106.392 86.5007C107.842 88.3539 109.87 89.6704 112.153 90.2418V92.2784C112.153 92.9604 112.424 93.6144 112.906 94.0967C113.388 94.5789 114.042 94.8498 114.724 94.8498C115.406 94.8498 116.06 94.5789 116.542 94.0967C117.025 93.6144 117.296 92.9604 117.296 92.2784V90.2418C119.799 89.6177 121.988 88.099 123.448 85.9722C124.909 83.8453 125.54 81.2575 125.224 78.6969C124.908 76.1363 123.665 73.78 121.731 72.0726C119.797 70.3652 117.304 69.4247 114.724 69.4287C113.302 69.3978 111.948 68.8111 110.953 67.7943C109.958 66.7775 109.401 65.4114 109.401 63.9888C109.401 62.5662 109.958 61.2002 110.953 60.1834C111.948 59.1666 113.302 58.5799 114.724 58.549ZM39.3427 32.6007C39.8277 33.0691 40.4773 33.3283 41.1515 33.3224C41.8257 33.3166 42.4706 33.0461 42.9474 32.5694C43.4242 32.0926 43.6946 31.4477 43.7005 30.7734C43.7063 30.0992 43.4471 29.4497 42.9787 28.9647L38.0107 23.9941H101.083C103.345 23.9968 105.513 24.8966 107.113 26.4961C108.712 28.0956 109.612 30.2641 109.615 32.5261C109.615 33.2081 109.886 33.8622 110.368 34.3444C110.85 34.8266 111.504 35.0976 112.186 35.0976C112.868 35.0976 113.522 34.8266 114.004 34.3444C114.487 33.8622 114.758 33.2081 114.758 32.5261C114.754 28.9006 113.311 25.4247 110.748 22.861C108.184 20.2974 104.708 18.8553 101.083 18.8513H38.021L42.989 13.8858C43.4719 13.4023 43.7429 12.7468 43.7424 12.0634C43.7419 11.3801 43.47 10.725 42.9864 10.2421C42.5029 9.75928 41.8474 9.48829 41.1641 9.48877C40.4807 9.48925 39.8256 9.76117 39.3427 10.2447L29.9853 19.6047C29.5032 20.0869 29.2324 20.7408 29.2324 21.4227C29.2324 22.1045 29.5032 22.7585 29.9853 23.2407L39.3427 32.6007ZM104.657 111.4C104.42 111.154 104.136 110.958 103.822 110.823C103.509 110.689 103.171 110.618 102.83 110.615C102.488 110.612 102.15 110.677 101.834 110.806C101.518 110.935 101.231 111.126 100.989 111.368C100.748 111.609 100.557 111.896 100.427 112.212C100.298 112.528 100.233 112.867 100.236 113.208C100.239 113.55 100.31 113.887 100.445 114.201C100.58 114.515 100.775 114.798 101.021 115.036L105.989 120.006H42.917C40.655 120.003 38.4865 119.104 36.887 117.504C35.2875 115.905 34.3877 113.736 34.385 111.474C34.385 110.792 34.1141 110.138 33.6319 109.656C33.1496 109.174 32.4956 108.903 31.8136 108.903C31.1316 108.903 30.4775 109.174 29.9953 109.656C29.5131 110.138 29.2422 110.792 29.2422 111.474C29.2462 115.1 30.6883 118.576 33.2519 121.139C35.8156 123.703 39.2915 125.145 42.917 125.149H105.979L101.011 130.114C100.772 130.354 100.582 130.638 100.453 130.951C100.324 131.263 100.257 131.598 100.257 131.937C100.258 132.275 100.325 132.61 100.454 132.923C100.584 133.235 100.774 133.519 101.013 133.758C101.253 133.997 101.537 134.187 101.85 134.316C102.162 134.445 102.497 134.512 102.836 134.511C103.174 134.511 103.509 134.444 103.822 134.315C104.134 134.185 104.418 133.995 104.657 133.756L114.014 124.396C114.497 123.913 114.767 123.259 114.767 122.578C114.767 121.896 114.497 121.242 114.014 120.76L104.657 111.4Z" fill="black"/>
</g>
<defs>
<clipPath id="clip0_3156_11133">
<rect width="144" height="144" fill="white"/>
</clipPath>
</defs>
</svg>
