<svg width="512" height="512" viewBox="0 0 512 512" fill="none" xmlns="http://www.w3.org/2000/svg">
<path d="M299 512H108C63.887 512 28 476.113 28 432V161C28 116.887 63.887 81 108 81H299C343.113 81 379 116.887 379 161V432C379 476.113 343.113 512 299 512ZM108 121C85.945 121 68 138.945 68 161V432C68 454.055 85.945 472 108 472H299C321.055 472 339 454.055 339 432V161C339 138.945 321.055 121 299 121H108ZM459 382V80C459 35.887 423.113 0 379 0H157C145.953 0 137 8.953 137 20C137 31.047 145.953 40 157 40H379C401.055 40 419 57.945 419 80V382C419 393.047 427.953 402 439 402C450.047 402 459 393.047 459 382Z" fill="black"/>
</svg>
