<svg width="24" height="24" viewBox="0 0 24 24" fill="none" xmlns="http://www.w3.org/2000/svg">
  <path d="M21.5676 9.133C21.7665 9.133 21.9573 9.05398 22.0979 8.91333C22.2386 8.77268 22.3176 8.58191 22.3176 8.383C22.3176 8.18409 22.2386 7.99332 22.0979 7.85267C21.9573 7.71202 21.7665 7.633 21.5676 7.633V9.133ZM11.9996 20.763L11.2906 21.007C11.3413 21.1549 11.4369 21.2833 11.5641 21.3741C11.6914 21.465 11.8438 21.5139 12.0001 21.5139C12.1565 21.5139 12.3089 21.465 12.4361 21.3741C12.5633 21.2833 12.6589 21.1549 12.7096 21.007L11.9996 20.763ZM2.43162 7.633C2.23271 7.633 2.04194 7.71202 1.90129 7.85267C1.76064 7.99332 1.68162 8.18409 1.68162 8.383C1.68162 8.58191 1.76064 8.77268 1.90129 8.91333C2.04194 9.05398 2.23271 9.133 2.43162 9.133V7.633ZM17.9766 4.217L20.8986 7.55L22.0256 6.56L19.1036 3.228L17.9766 4.217ZM20.9616 9.341L13.0876 19.706L14.2816 20.613L22.1556 10.25L20.9616 9.341ZM10.9116 19.706L3.03762 9.341L1.84362 10.25L9.71662 20.613L10.9116 19.706ZM3.10062 7.55L6.02262 4.217L4.89562 3.228L1.97262 6.557L3.10062 7.55ZM14.1256 3.75H16.9496V2.25H14.1256V3.75ZM16.2496 9.133H21.5656V7.633H16.2496V9.133ZM13.4286 3.276L15.5546 8.659L16.9546 8.108L14.8236 2.724L13.4286 3.276ZM12.7096 21.007L16.9616 8.626L15.5426 8.139L11.2906 20.52L12.7096 21.007ZM7.04962 3.75H10.1096V2.25H7.04962V3.75ZM10.1116 3.75H14.1276V2.25H10.1096L10.1116 3.75ZM2.43162 9.133H7.74962V7.633H2.43162V9.133ZM7.74762 9.133H16.2496V7.633H7.74962L7.74762 9.133ZM9.42262 2.699L7.06062 8.081L8.43462 8.681L10.7966 3.301L9.42262 2.699ZM12.7086 20.52L8.45662 8.139L7.03762 8.626L11.2906 21.007L12.7086 20.52ZM3.03762 9.341C2.84139 9.08041 2.74058 8.76035 2.75205 8.43435C2.76352 8.10834 2.88657 7.79616 3.10062 7.55L1.97262 6.557C1.52926 7.06363 1.27431 7.70772 1.25081 8.38054C1.2273 9.05336 1.43669 9.71367 1.84362 10.25L3.03762 9.341ZM13.0876 19.706C12.9609 19.8749 12.7967 20.012 12.6078 20.1064C12.419 20.2008 12.2108 20.25 11.9996 20.25C11.7885 20.25 11.5803 20.2008 11.3914 20.1064C11.2026 20.012 11.0383 19.8749 10.9116 19.706L9.71762 20.613C9.98422 20.9661 10.3291 21.2526 10.7252 21.4498C11.1212 21.647 11.5577 21.7497 12.0001 21.7497C12.4426 21.7497 12.879 21.647 13.2751 21.4498C13.6711 21.2526 14.016 20.9661 14.2826 20.613L13.0876 19.706ZM20.8986 7.55C21.1137 7.79645 21.2373 8.10943 21.2488 8.43631C21.2603 8.7632 21.1589 9.08408 20.9616 9.345L22.1556 10.25C22.5622 9.71364 22.7712 9.05347 22.7475 8.38087C22.7239 7.70827 22.4689 7.06444 22.0256 6.558L20.8986 7.55ZM19.1036 3.228C18.8349 2.92102 18.5037 2.67497 18.1323 2.5063C17.7608 2.33764 17.3576 2.25026 16.9496 2.25V3.75C17.144 3.75029 17.3361 3.7921 17.5131 3.87264C17.69 3.95318 17.8487 4.07058 17.9766 4.217L19.1036 3.228ZM6.02162 4.218C6.14965 4.07115 6.30763 3.9534 6.48494 3.87268C6.66226 3.79196 6.8548 3.75013 7.04962 3.75V2.25C6.64165 2.25026 6.23844 2.33764 5.86697 2.5063C5.49549 2.67497 5.16432 2.92102 4.89562 3.228L6.02162 4.218Z" fill="#263238"/>
</svg>
