<!-- Generated by IcoMoon.io -->
<svg version="1.1" xmlns="http://www.w3.org/2000/svg" width="1024" height="1024" viewBox="0 0 1024 1024">
<title></title>
<g id="icomoon-ignore">
</g>
<path d="M501.603-11.346c-9.445 1.931-17.238 7.787-21.735 15.752l-0.084 0.16c-3.856 6.54-3.904 11.032-4.881 309.752l-0.976 303.163-51.74-51.886c-28.554-28.651-55.205-53.691-59.402-55.888-4.288-2.369-9.401-3.763-14.839-3.763-4.709 0-9.173 1.044-13.174 2.916l0.191-0.080c-8.794 5.862-16.091 13.237-21.689 21.821l-0.177 0.291c-3.368 6.54-2.636 19.525 1.562 27.578 2.050 3.954 43.587 46.907 92.252 95.424 77.902 77.609 89.47 88.445 96.791 90.348 18.304 4.832 15.961 6.736 113.387-90.348 48.664-48.518 90.202-91.471 92.252-95.424 4.197-8.054 4.929-21.037 1.562-27.578-5.776-8.875-13.074-16.249-21.592-21.938l-0.275-0.173c-3.864-1.805-8.39-2.859-13.162-2.859-4.974 0-9.682 1.145-13.872 3.186l0.188-0.082c-3.661 1.854-30.604 27.187-59.891 56.376l-53.204 52.959-0.097-297.695c-0.049-163.76-0.829-301.552-1.708-306.238-3.856-19.915-22.355-30.311-45.687-25.772zM266.971 327.35c-115.827 16.693-188.311 66.138-224.919 153.411-18.255 43.441-26.601 86.248-29.969 153.021-2.147 43.1-0.097 93.863 5.222 129.934 17.425 117.731 74.241 191.923 172.546 225.358 23.771 8.054 46.858 13.423 78.244 18.158 19.719 2.978 45.93 3.417 225.358 4.1 211.691 0.829 237.951 0.097 281.149-7.419 69.213-12.105 116.364-34.558 156.779-74.583 40.318-39.927 64.333-94.448 75.949-172.301 5.076-34.265 5.028-141.502-0.097-177.671-19.426-137.011-82.148-211.936-203.344-242.93-21.537-5.977-46.426-9.809-72.075-10.628l-0.506-0.013c-22.697-0.293-27.578 1.904-34.558 15.425-5.467 10.446-5.467 30.751-0.097 40.025 5.906 10.104 13.569 13.423 38.219 16.644 114.559 14.839 168.006 56.083 191.875 147.993 9.664 37.144 11.715 58.426 11.715 120.367 0 49.494-0.586 61.306-4.197 83.954-18.792 118.024-70.238 167.567-191.875 184.943-22.16 3.124-43.197 3.465-229.409 3.465-185.675 0-207.396-0.342-230.434-3.465-120.709-16.498-172.253-64.43-192.508-179.086-5.028-28.359-7.175-109.97-3.904-145.895 12.544-136.279 67.798-195.193 198.415-211.544 21.721-2.733 32.801-7.322 38.121-15.815 5.614-9.030 4.929-35.68-1.122-43.832-10.446-13.911-21.721-16.351-54.57-11.617z"></path>
</svg>
