<svg width="20" height="20" viewBox="0 0 20 20" fill="none" xmlns="http://www.w3.org/2000/svg">
<g clip-path="url(#clip0_10578_3945)">
<path fill-rule="evenodd" clip-rule="evenodd" d="M5.7143 5.44425e-05H14.2857C17.4289 5.44425e-05 20 2.50528 20 5.57197V8.26105C17.1824 9.4969 14.34 15.6006 10.1972 14.2743C9.85597 14.5109 9.06953 15.4859 9.01435 16.2257C7.57981 16.0393 5.92599 14.4352 6.12445 12.7053C3.73676 11.0201 5.7085 7.90919 7.6019 6.65707C11.66 3.97338 17.2938 6.28141 14.16 8.20024C12.2545 9.367 8.17966 10.1377 8.60331 7.27341C7.48551 7.58798 6.77 9.62173 8.11583 10.6815C6.86909 11.8767 7.10879 14.0737 8.44145 14.795C9.78923 11.3876 14.4802 11.8329 16.3755 7.76541C17.8015 4.70574 15.6873 1.2194 11.4605 1.75495C8.27044 2.15919 5.28027 4.7849 3.78485 7.89906C2.26756 11.0587 2.49337 15.2897 5.60896 17.422C9.27553 19.9314 13.1791 17.6079 15.5434 14.571C16.937 12.781 18.1546 10.7981 20 9.65282V14.4205C20 17.4871 17.4285 20.0001 14.2857 20.0001H5.7143C2.57142 20.0001 0 17.491 0 14.4243V5.57578C0 2.50909 2.57142 0 5.7143 0V5.44425e-05Z" fill="#1C212D"/>
</g>
<defs>
<clipPath id="clip0_10578_3945">
<rect width="20" height="20" fill="white"/>
</clipPath>
</defs>
</svg>
