<svg width="24" height="24" viewBox="0 0 24 24" fill="none" xmlns="http://www.w3.org/2000/svg">
<path d="M8.75 7.75C9.16421 7.75 9.5 7.41421 9.5 7C9.5 6.58579 9.16421 6.25 8.75 6.25C8.33579 6.25 8 6.58579 8 7C8 7.41421 8.33579 7.75 8.75 7.75Z" fill="black"/>
<path d="M11 7.75C10.8011 7.75 10.6103 7.67098 10.4697 7.53033C10.329 7.38968 10.25 7.19891 10.25 7C10.25 6.80109 10.329 6.61032 10.4697 6.46967C10.6103 6.32902 10.8011 6.25 11 6.25H15C15.1989 6.25 15.3897 6.32902 15.5303 6.46967C15.671 6.61032 15.75 6.80109 15.75 7C15.75 7.19891 15.671 7.38968 15.5303 7.53033C15.3897 7.67098 15.1989 7.75 15 7.75H11Z" fill="black"/>
<path d="M8.75 10.75C9.16421 10.75 9.5 10.4142 9.5 10C9.5 9.58579 9.16421 9.25 8.75 9.25C8.33579 9.25 8 9.58579 8 10C8 10.4142 8.33579 10.75 8.75 10.75Z" fill="black"/>
<path d="M11 10.75C10.59 10.75 10.25 10.42 10.25 10C10.25 9.58 10.58 9.25 11 9.25H14C14.41 9.25 14.75 9.58 14.75 10C14.75 10.42 14.42 10.75 14 10.75H11Z" fill="black"/>
<path d="M12 22.75C11.55 22.75 11.12 22.55 10.81 22.19L8.5 19.49L7.08 21.15C6.63 21.67 5.97 21.85 5.35 21.62C4.68 21.37 4.25 20.72 4.25 19.96V6.44C4.25 3.58 6.52 1.25 9.31 1.25H14.69C17.48 1.25 19.75 3.58 19.75 6.44V19.98C19.75 20.74 19.32 21.39 18.66 21.63C18.04 21.86 17.38 21.68 16.94 21.16L15.5 19.48L13.19 22.18C12.89 22.54 12.45 22.74 12 22.74V22.75ZM8.5 17.8C8.84 17.8 9.16 17.95 9.38 18.21L11.95 21.21L14.62 18.21C15.07 17.69 15.93 17.69 16.38 18.21L18.07 20.19C18.19 20.18 18.24 20.11 18.24 19.98V6.44C18.24 4.4 16.64 2.75 14.68 2.75H9.3C7.34 2.75 5.74 4.41 5.74 6.44V19.95C5.74 20.12 5.82 20.19 5.86 20.2L7.61 18.2C7.83 17.94 8.16 17.79 8.49 17.79L8.5 17.8Z" fill="black"/>
</svg>
