<svg width="24" height="24" viewBox="0 0 24 24" fill="none" xmlns="http://www.w3.org/2000/svg">
<path fill-rule="evenodd" clip-rule="evenodd" d="M5.40002 2.84998C4.738 2.84998 4.15002 3.39002 4.15002 4.19998V6.49998C4.15002 6.65674 4.20912 6.92331 4.34691 7.23068C4.48179 7.53158 4.65976 7.79906 4.83035 7.96965L4.84377 7.98341L8.64377 11.9834C8.65842 11.9988 8.6724 12.0149 8.68568 12.0315C8.9393 12.3485 9.17393 12.7653 9.34638 13.1964C9.51722 13.6235 9.65002 14.1219 9.65002 14.6V19.9C9.65002 20.8668 10.7635 21.4745 11.6014 20.9646L12.9945 20.0691C13.001 20.0649 13.0075 20.0608 13.0142 20.0569C13.1052 20.0022 13.2478 19.8555 13.3721 19.6165C13.494 19.382 13.55 19.1508 13.55 19V14.7C13.55 14.1846 13.6765 13.6351 13.8846 13.1446C14.0898 12.6608 14.3984 12.1783 14.8108 11.8314L19.0842 8.05491C19.2538 7.88039 19.45 7.59257 19.6047 7.25212C19.7649 6.8999 19.85 6.55846 19.85 6.29998V4.09998C19.85 3.41419 19.2858 2.84998 18.6 2.84998H5.40002ZM2.65002 4.19998C2.65002 2.60993 3.86205 1.34998 5.40002 1.34998H18.6C20.1142 1.34998 21.35 2.58576 21.35 4.09998V6.29998C21.35 6.8415 21.1852 7.40006 20.9703 7.87283C20.7545 8.34762 20.4576 8.8031 20.1304 9.13031C20.1195 9.14121 20.1082 9.15177 20.0967 9.16197L15.7967 12.962C15.7912 12.9668 15.7857 12.9715 15.7802 12.9761C15.5971 13.1287 15.4087 13.3927 15.2655 13.7304C15.1236 14.0648 15.05 14.4153 15.05 14.7V19C15.05 19.4492 14.906 19.9179 14.7029 20.3085C14.5041 20.6909 14.2005 21.0903 13.7971 21.3363L12.4056 22.2309L12.3931 22.2387C10.6316 23.3227 8.15002 22.131 8.15002 19.9V14.6C8.15002 14.3781 8.08282 14.0764 7.95367 13.7535C7.83132 13.4477 7.67417 13.1746 7.53237 12.9914L3.7624 9.02299C3.43627 8.69451 3.16685 8.26524 2.97814 7.84427C2.79093 7.42664 2.65002 6.94321 2.65002 6.49998V4.19998Z" fill="#292D32"/>
<path fill-rule="evenodd" clip-rule="evenodd" d="M11.327 1.46368C11.6784 1.68298 11.7855 2.14562 11.5662 2.49702L6.63625 10.397C6.41696 10.7484 5.95432 10.8555 5.60291 10.6362C5.25151 10.4169 5.14442 9.95429 5.36371 9.60289L10.2937 1.70289C10.513 1.35149 10.9756 1.24439 11.327 1.46368Z" fill="#292D32"/>
</svg>
