<svg width="18" height="20" viewBox="0 0 18 20" fill="none" xmlns="http://www.w3.org/2000/svg">
  <path fill-rule="evenodd" clip-rule="evenodd" d="M11.4405 0.985808C12.3002 1.25529 12.5599 2.15046 12.5599 2.93937V8.20142H14.8999C15.3099 8.20142 15.6935 8.25333 16.0226 8.37553C16.3491 8.49678 16.6791 8.71048 16.8721 9.06744C17.2952 9.84973 16.7899 10.6235 16.2853 11.0995C16.285 11.0998 16.2847 11.1001 16.2844 11.1004L8.71611 18.2798C8.11952 18.8453 7.32998 19.2994 6.54934 19.0546C5.6897 18.7852 5.42994 17.89 5.42994 17.1011V11.839H3.08994C2.68278 11.839 2.30126 11.7877 1.97347 11.6663C1.64799 11.5457 1.31895 11.333 1.12578 10.9771C0.703587 10.1993 1.20104 9.42534 1.69996 8.94534L1.70376 8.94168L9.27377 1.76064C9.87036 1.19516 10.6599 0.74109 11.4405 0.985808ZM10.3059 2.84909C10.3058 2.84915 10.3059 2.84904 10.3059 2.84909L2.73814 10.028C2.634 10.1284 2.5683 10.2103 2.52783 10.2711C2.64189 10.3075 2.82463 10.339 3.08994 10.339H6.17994C6.59416 10.339 6.92994 10.6748 6.92994 11.089V17.1011C6.92994 17.3796 6.97641 17.5361 7.01167 17.6074C7.01374 17.6116 7.01568 17.6153 7.01748 17.6186C7.04058 17.615 7.07744 17.606 7.13043 17.5842C7.26224 17.5299 7.45121 17.412 7.68377 17.1916L15.2538 10.0105L15.2555 10.0089C15.3596 9.91074 15.4258 9.83025 15.4669 9.77018C15.3517 9.73337 15.1673 9.70142 14.8999 9.70142H11.8099C11.3957 9.70142 11.0599 9.36563 11.0599 8.95142V2.93937C11.0599 2.66086 11.0135 2.50434 10.9782 2.43308C10.9761 2.4289 10.9742 2.42516 10.9724 2.42183C10.9493 2.42545 10.9124 2.43446 10.8594 2.45628C10.7276 2.51057 10.5385 2.62867 10.3059 2.84909ZM10.9571 2.39786C10.9566 2.39735 10.9571 2.39784 10.9571 2.39786ZM7.03282 17.6426C7.03282 17.6426 7.03258 17.6424 7.03213 17.6418Z" fill="#292D32"/>
</svg>
