<svg width="24" height="24" viewBox="0 0 24 24" fill="none" xmlns="http://www.w3.org/2000/svg">
<path d="M12 2.75C9.85309 2.74908 7.79038 3.58512 6.24995 5.08055C4.70952 6.57598 3.81272 8.613 3.75 10.759C4.24142 10.4454 4.80813 10.2696 5.39078 10.2502C5.97343 10.2308 6.55058 10.3685 7.06178 10.6487C7.57297 10.9289 7.99941 11.3415 8.29643 11.8431C8.59344 12.3448 8.7501 12.917 8.75 13.5V15.5C8.75 16.362 8.40759 17.1886 7.7981 17.7981C7.1886 18.4076 6.36195 18.75 5.5 18.75C4.63805 18.75 3.8114 18.4076 3.2019 17.7981C2.59241 17.1886 2.25 16.362 2.25 15.5V11C2.25 8.41414 3.27723 5.93419 5.10571 4.10571C6.93419 2.27723 9.41414 1.25 12 1.25C14.5859 1.25 17.0658 2.27723 18.8943 4.10571C20.7228 5.93419 21.75 8.41414 21.75 11V16C21.75 17.7902 21.0388 19.5071 19.773 20.773C18.5071 22.0388 16.7902 22.75 15 22.75H12C11.8011 22.75 11.6103 22.671 11.4697 22.5303C11.329 22.3897 11.25 22.1989 11.25 22C11.25 21.8011 11.329 21.6103 11.4697 21.4697C11.6103 21.329 11.8011 21.25 12 21.25H15C15.9333 21.2504 16.8497 21.0018 17.655 20.53C18.4602 20.0583 19.125 19.3803 19.581 18.566C19.0908 18.7384 18.5664 18.7909 18.0517 18.7189C17.5371 18.6469 17.0472 18.4527 16.623 18.1525C16.1989 17.8522 15.8529 17.4547 15.614 16.9932C15.3751 16.5317 15.2503 16.0197 15.25 15.5V13.5C15.2499 12.917 15.4066 12.3448 15.7036 11.8431C16.0006 11.3415 16.427 10.9289 16.9382 10.6487C17.4494 10.3685 18.0266 10.2308 18.6092 10.2502C19.1919 10.2696 19.7586 10.4454 20.25 10.759C20.1873 8.613 19.2905 6.57598 17.7501 5.08055C16.2096 3.58512 14.1469 2.74908 12 2.75Z" fill="white"/>
</svg>
