<svg width="20" height="20" viewBox="0 0 20 20" fill="none" xmlns="http://www.w3.org/2000/svg">
<path d="M18.125 11.666C18.125 11.5003 18.0592 11.3413 17.9419 11.2241C17.8247 11.1069 17.6658 11.041 17.5 11.041C17.3342 11.041 17.1753 11.1069 17.0581 11.2241C16.9408 11.3413 16.875 11.5003 16.875 11.666H18.125ZM10 17.7077C9.83424 17.7077 9.67527 17.7735 9.55806 17.8907C9.44085 18.0079 9.375 18.1669 9.375 18.3327C9.375 18.4984 9.44085 18.6574 9.55806 18.7746C9.67527 18.8918 9.83424 18.9577 10 18.9577V17.7077ZM16.875 10.8327V12.4993H18.125V10.8327H16.875ZM13.125 12.4993V10.8327H11.875V12.4993H13.125ZM15 14.3743C14.5027 14.3743 14.0258 14.1768 13.6742 13.8252C13.3225 13.4735 13.125 12.9966 13.125 12.4993H11.875C11.875 12.9097 11.9558 13.3161 12.1129 13.6952C12.2699 14.0744 12.5001 14.4189 12.7903 14.7091C13.3763 15.2951 14.1712 15.6243 15 15.6243V14.3743ZM16.875 12.4993C16.875 12.9966 16.6775 13.4735 16.3258 13.8252C15.9742 14.1768 15.4973 14.3743 15 14.3743V15.6243C15.4104 15.6243 15.8167 15.5435 16.1959 15.3865C16.575 15.2294 16.9195 14.9992 17.2097 14.7091C17.4999 14.4189 17.7301 14.0744 17.8871 13.6952C18.0442 13.3161 18.125 12.9097 18.125 12.4993H16.875ZM15 8.95768C15.4973 8.95768 15.9742 9.15523 16.3258 9.50686C16.6775 9.85849 16.875 10.3354 16.875 10.8327H18.125C18.125 10.0039 17.7958 9.20902 17.2097 8.62297C16.6237 8.03692 15.8288 7.70768 15 7.70768V8.95768ZM15 7.70768C14.1712 7.70768 13.3763 8.03692 12.7903 8.62297C12.2042 9.20902 11.875 10.0039 11.875 10.8327H13.125C13.125 10.3354 13.3225 9.85849 13.6742 9.50686C14.0258 9.15523 14.5027 8.95768 15 8.95768V7.70768ZM6.875 10.8327V12.4993H8.125V10.8327H6.875ZM3.125 12.4993V10.8327H1.875V12.4993H3.125ZM5 14.3743C4.50272 14.3743 4.02581 14.1768 3.67417 13.8252C3.32254 13.4735 3.125 12.9966 3.125 12.4993H1.875C1.875 12.9097 1.95583 13.3161 2.11288 13.6952C2.26992 14.0744 2.50011 14.4189 2.79029 14.7091C3.37634 15.2951 4.1712 15.6243 5 15.6243V14.3743ZM6.875 12.4993C6.875 12.9966 6.67746 13.4735 6.32582 13.8252C5.97419 14.1768 5.49728 14.3743 5 14.3743V15.6243C5.41038 15.6243 5.81674 15.5435 6.19589 15.3865C6.57503 15.2294 6.91953 14.9992 7.20971 14.7091C7.49989 14.4189 7.73008 14.0744 7.88712 13.6952C8.04417 13.3161 8.125 12.9097 8.125 12.4993H6.875ZM5 8.95768C5.49728 8.95768 5.97419 9.15523 6.32582 9.50686C6.67746 9.85849 6.875 10.3354 6.875 10.8327H8.125C8.125 10.0039 7.79576 9.20902 7.20971 8.62297C6.62366 8.03692 5.8288 7.70768 5 7.70768V8.95768ZM5 7.70768C4.1712 7.70768 3.37634 8.03692 2.79029 8.62297C2.20424 9.20902 1.875 10.0039 1.875 10.8327H3.125C3.125 10.3354 3.32254 9.85849 3.67417 9.50686C4.02581 9.15523 4.50272 8.95768 5 8.95768V7.70768ZM3.125 10.8327V9.16602H1.875V10.8327H3.125ZM16.875 9.16602V10.8327H18.125V9.16602H16.875ZM10 2.29102C11.8234 2.29102 13.572 3.01534 14.8614 4.30466C16.1507 5.59397 16.875 7.34265 16.875 9.16602H18.125C18.125 7.01113 17.269 4.94451 15.7452 3.42077C14.2215 1.89704 12.1549 1.04102 10 1.04102V2.29102ZM3.125 9.16602C3.125 7.34265 3.84933 5.59397 5.13864 4.30466C6.42795 3.01534 8.17664 2.29102 10 2.29102V1.04102C7.84512 1.04102 5.77849 1.89704 4.25476 3.42077C2.73102 4.94451 1.875 7.01113 1.875 9.16602H3.125ZM16.875 11.666V13.3327H18.125V11.666H16.875ZM12.5 17.7077H10V18.9577H12.5V17.7077ZM16.875 13.3327C16.875 14.493 16.4141 15.6058 15.5936 16.4263C14.7731 17.2467 13.6603 17.7077 12.5 17.7077V18.9577C13.9918 18.9577 15.4226 18.365 16.4775 17.3102C17.5324 16.2553 18.125 14.8245 18.125 13.3327H16.875Z" fill="#FF5128"/>
</svg>
