<svg width="18" height="18" viewBox="0 0 18 18" fill="none" xmlns="http://www.w3.org/2000/svg">
  <path d="M9.57419 3.52457L9.00044 4.14257L8.42669 3.52457C8.06458 3.12275 7.6221 2.80148 7.12791 2.58158C6.63372 2.36168 6.09884 2.24805 5.55794 2.24805C5.01703 2.24805 4.48216 2.36168 3.98797 2.58158C3.49378 2.80148 3.05129 3.12275 2.68919 3.52457C1.92448 4.36897 1.50098 5.46749 1.50098 6.6067C1.50098 7.7459 1.92448 8.84443 2.68919 9.68882L7.85294 15.2388C7.99781 15.3995 8.17481 15.528 8.37248 15.6159C8.57015 15.7038 8.78409 15.7493 9.00044 15.7493C9.21679 15.7493 9.43072 15.7038 9.6284 15.6159C9.82607 15.528 10.0031 15.3995 10.1479 15.2388L15.3117 9.68882C16.0764 8.84443 16.4999 7.7459 16.4999 6.6067C16.4999 5.46749 16.0764 4.36897 15.3117 3.52457C14.9496 3.12275 14.5071 2.80148 14.0129 2.58158C13.5187 2.36168 12.9838 2.24805 12.4429 2.24805C11.902 2.24805 11.3672 2.36168 10.873 2.58158C10.3788 2.80148 9.93629 3.12275 9.57419 3.52457Z" fill="#FF5128"/>
</svg>
