<!-- Generated by IcoMoon.io -->
<svg version="1.1" xmlns="http://www.w3.org/2000/svg" width="1024" height="1024" viewBox="0 0 1024 1024">
<title></title>
<g id="icomoon-ignore">
</g>
<path fill="#000" d="M491.023 0.237c-188.929 8.47-350.473 117.875-432.751 275.27l-1.346 2.829c-38.666 75.043-56.306 147.799-56.402 232.711-0.048 54.495 5.864 96.737 20.501 146.368 48.344 163.913 182.126 297.695 345.562 345.514 80.717 23.6 170.492 27.367 250.112 10.441 153.741-33.542 279.488-132.165 349.026-264.875l1.351-2.83c38.856-75.425 56.402-147.942 56.402-233.664 0-54.209-5.769-94.877-20.548-145.414-47.82-163.436-182.078-297.695-345.514-345.514-52.921-15.495-114.71-23.219-166.393-20.834zM566.733 74.422c99.12 12.968 184.987 55.401 256.216 126.63 37.308 36.555 67.915 79.782 89.918 127.773l1.097 2.671c24.365 51.879 38.587 112.668 38.587 176.778 0 1.311-0.006 2.619-0.018 3.927l0.001-0.2c0 64.841-12.301 122.386-38.57 180.505-23.101 50.662-53.707 93.888-90.943 130.373l-0.073 0.070c-36.555 37.308-79.782 67.915-127.773 89.918l-2.671 1.097c-51.879 24.365-112.668 38.587-176.778 38.587-1.311 0-2.619-0.006-3.927-0.018l0.2 0.001c-1.107 0.010-2.417 0.017-3.727 0.017-64.11 0-124.899-14.221-179.384-39.681l2.606 1.094c-50.662-23.101-93.888-53.707-130.373-90.943l-0.070-0.073c-85.008-85.008-129.586-191.995-129.586-310.948s44.577-225.94 129.586-310.948c70.657-70.657 156.284-113.185 254.737-126.63 26.652-3.624 83.339-3.624 110.944 0zM501.845 286.87c-9.225 1.886-16.837 7.606-21.23 15.386l-0.082 0.156c-3.719 6.293-3.814 9.917-3.814 138.073s0.095 131.779 3.814 138.073c4.661 8.311 12.848 14.17 22.48 15.57l0.166 0.020c17.498 3.29 32.611-2.575 40.287-15.59 3.671-6.293 3.814-10.489 4.434-127.583 0.334-66.604 0.048-126.439-0.62-132.97-2.002-19.309-11.634-29.559-29.559-31.562-1.88-0.201-4.061-0.316-6.269-0.316-3.391 0-6.72 0.27-9.965 0.792l0.356-0.047zM491.499 658.511c-17.784 6.341-25.316 17.45-26.747 39.428-2.050 31.562 12.063 49.251 41.336 51.92 21.598 1.954 40.478-6.245 48.249-20.931 3.576-6.722 4.291-11.204 4.339-26.366 0.048-17.021-0.334-18.928-5.673-27.557-7.772-12.539-19.166-18.403-37.712-19.357-1.617-0.166-3.493-0.261-5.392-0.261-6.593 0-12.917 1.143-18.788 3.244l0.39-0.122z"></path>
</svg>
