<svg width="188" height="188" viewBox="0 0 188 188" fill="none" xmlns="http://www.w3.org/2000/svg">
<path d="M158.625 47H129.25V41.125C129.25 38.0087 130.488 35.02 132.691 32.8165C134.895 30.6129 137.884 29.375 141 29.375C142.558 29.375 144.052 28.756 145.154 27.6543C146.256 26.5525 146.875 25.0581 146.875 23.5C146.875 21.9419 146.256 20.4475 145.154 19.3457C144.052 18.244 142.558 17.625 141 17.625C137.663 17.6292 134.366 18.3439 131.327 19.7216C128.288 21.0993 125.577 23.1083 123.375 25.615C121.173 23.1083 118.462 21.0993 115.423 19.7216C112.384 18.3439 109.087 17.6292 105.75 17.625C104.192 17.625 102.698 18.244 101.596 19.3457C100.494 20.4475 99.875 21.9419 99.875 23.5C99.875 25.0581 100.494 26.5525 101.596 27.6543C102.698 28.756 104.192 29.375 105.75 29.375C108.866 29.375 111.855 30.6129 114.059 32.8165C116.262 35.02 117.5 38.0087 117.5 41.125V47H29.375C24.7006 47 20.2176 48.8569 16.9122 52.1622C13.6069 55.4676 11.75 59.9506 11.75 64.625V123.375C11.75 128.049 13.6069 132.532 16.9122 135.838C20.2176 139.143 24.7006 141 29.375 141H117.5V146.875C117.5 149.991 116.262 152.98 114.059 155.184C111.855 157.387 108.866 158.625 105.75 158.625C104.192 158.625 102.698 159.244 101.596 160.346C100.494 161.448 99.875 162.942 99.875 164.5C99.875 166.058 100.494 167.552 101.596 168.654C102.698 169.756 104.192 170.375 105.75 170.375C109.087 170.371 112.384 169.656 115.423 168.278C118.462 166.901 121.173 164.892 123.375 162.385C125.577 164.892 128.288 166.901 131.327 168.278C134.366 169.656 137.663 170.371 141 170.375C142.558 170.375 144.052 169.756 145.154 168.654C146.256 167.552 146.875 166.058 146.875 164.5C146.875 162.942 146.256 161.448 145.154 160.346C144.052 159.244 142.558 158.625 141 158.625C137.884 158.625 134.895 157.387 132.691 155.184C130.488 152.98 129.25 149.991 129.25 146.875V141H158.625C163.299 141 167.782 139.143 171.088 135.838C174.393 132.532 176.25 128.049 176.25 123.375V64.625C176.25 59.9506 174.393 55.4676 171.088 52.1622C167.782 48.8569 163.299 47 158.625 47ZM29.375 129.25C27.8169 129.25 26.3225 128.631 25.2207 127.529C24.119 126.427 23.5 124.933 23.5 123.375V64.625C23.5 63.0669 24.119 61.5725 25.2207 60.4707C26.3225 59.369 27.8169 58.75 29.375 58.75H117.5V129.25H29.375ZM164.5 123.375C164.5 124.933 163.881 126.427 162.779 127.529C161.677 128.631 160.183 129.25 158.625 129.25H129.25V58.75H158.625C160.183 58.75 161.677 59.369 162.779 60.4707C163.881 61.5725 164.5 63.0669 164.5 64.625V123.375Z" fill="black"/>
<path d="M64.625 70.5H41.125C39.5669 70.5 38.0725 71.119 36.9707 72.2207C35.869 73.3225 35.25 74.8169 35.25 76.375C35.25 77.9331 35.869 79.4275 36.9707 80.5293C38.0725 81.631 39.5669 82.25 41.125 82.25H47V111.625C47 113.183 47.619 114.677 48.7207 115.779C49.8225 116.881 51.3169 117.5 52.875 117.5C54.4331 117.5 55.9275 116.881 57.0293 115.779C58.131 114.677 58.75 113.183 58.75 111.625V82.25H64.625C66.1831 82.25 67.6775 81.631 68.7793 80.5293C69.881 79.4275 70.5 77.9331 70.5 76.375C70.5 74.8169 69.881 73.3225 68.7793 72.2207C67.6775 71.119 66.1831 70.5 64.625 70.5Z" fill="black"/>
</svg>
