<svg width="20" height="20" viewBox="0 0 20 20" fill="none" xmlns="http://www.w3.org/2000/svg">
<path fill-rule="evenodd" clip-rule="evenodd" d="M5.00033 0C3.67442 0 2.40281 0.526716 1.46525 1.46428C0.527692 2.40184 0.000976563 3.67344 0.000976562 4.99935L0.000976563 14.998C0.000976563 16.324 0.527692 17.5956 1.46525 18.5331C2.40281 19.4707 3.67442 19.9974 5.00033 19.9974H14.999C16.3249 19.9974 17.5965 19.4707 18.5341 18.5331C19.4717 17.5956 19.9984 16.324 19.9984 14.998V4.99935C19.9984 3.67344 19.4717 2.40184 18.5341 1.46428C17.5965 0.526716 16.3249 0 14.999 0L5.00033 0ZM15.9989 4.99935C16.1966 4.99935 16.39 4.94071 16.5544 4.83084C16.7188 4.72097 16.847 4.56481 16.9227 4.38211C16.9983 4.19941 17.0181 3.99837 16.9795 3.80441C16.941 3.61046 16.8457 3.4323 16.7059 3.29246C16.5661 3.15263 16.3879 3.0574 16.194 3.01882C16 2.98024 15.799 3.00004 15.6163 3.07572C15.4336 3.1514 15.2774 3.27955 15.1675 3.44398C15.0577 3.60841 14.999 3.80172 14.999 3.99948C14.999 4.26466 15.1044 4.51898 15.2919 4.70649C15.4794 4.89401 15.7337 4.99935 15.9989 4.99935ZM14.999 9.9987C14.999 10.9875 14.7058 11.954 14.1565 12.7762C13.6071 13.5983 12.8264 14.2391 11.9128 14.6175C10.9993 14.9959 9.99413 15.0949 9.02435 14.902C8.05457 14.7091 7.16377 14.2329 6.4646 13.5338C5.76543 12.8346 5.28929 11.9438 5.09639 10.974C4.90349 10.0042 5.00249 8.99904 5.38088 8.08553C5.75927 7.17202 6.40005 6.39123 7.22218 5.84189C8.04432 5.29256 9.0109 4.99935 9.99967 4.99935C11.3256 4.99935 12.5972 5.52606 13.5347 6.46362C14.4723 7.40118 14.999 8.67279 14.999 9.9987ZM9.99967 12.9983C10.5929 12.9983 11.1729 12.8224 11.6662 12.4928C12.1595 12.1632 12.5439 11.6947 12.771 11.1466C12.998 10.5985 13.0574 9.99537 12.9416 9.4135C12.8259 8.83164 12.5402 8.29716 12.1207 7.87765C11.7012 7.45815 11.1667 7.17247 10.5849 7.05672C10.003 6.94098 9.39988 7.00039 8.85177 7.22742C8.30367 7.45445 7.83519 7.83892 7.50559 8.3322C7.17599 8.82549 7.00006 9.40543 7.00006 9.9987C7.00006 10.7942 7.31609 11.5572 7.87863 12.1197C8.44117 12.6823 9.20413 12.9983 9.99967 12.9983Z" fill="#1C212D"/>
</svg>
