<svg width="24" height="24" viewBox="0 0 24 24" fill="none" xmlns="http://www.w3.org/2000/svg">
  <g>
    <path
      d="M10.4868 5.84812C8.23552 6.37303 6.42328 8.15836 5.86987 10.3965C5.31473 12.6417 5.95008 14.9303 7.56952 16.5184C8.14233 17.0802 8.48438 17.9806 8.48438 18.927V19.0781C8.48438 19.7014 8.7563 20.2622 9.1875 20.6487V21.8906C9.1875 23.0537 10.1338 24 11.2969 24H12.7031C13.8662 24 14.8125 23.0537 14.8125 21.8906V20.6487C15.2437 20.2622 15.5156 19.7014 15.5156 19.0781V18.9243C15.5156 17.9922 15.876 17.0747 16.4795 16.4699C17.6716 15.2752 18.3281 13.6877 18.3281 12C18.3281 7.96505 14.589 4.89197 10.4868 5.84812ZM13.4062 21.8906C13.4062 22.2783 13.0908 22.5938 12.7031 22.5938H11.2969C10.9092 22.5938 10.5938 22.2783 10.5938 21.8906V21.1875H13.4062V21.8906ZM15.484 15.4765C14.6104 16.352 14.1094 17.6086 14.1094 18.9243V19.0781C14.1094 19.4658 13.794 19.7812 13.4062 19.7812H10.5938C10.206 19.7812 9.89062 19.4658 9.89062 19.0781V18.927C9.89062 17.5912 9.40345 16.3473 8.55408 15.5144C7.29361 14.2783 6.80053 12.4913 7.23497 10.734C7.6627 9.00398 9.06445 7.6237 10.8061 7.21767C14.0251 6.46706 16.9219 8.87006 16.9219 12C16.9219 13.3127 16.4112 14.5473 15.484 15.4765ZM6.53095 5.53659L4.54219 3.54788C4.26764 3.27328 3.82242 3.27328 3.54783 3.54788C3.27323 3.82247 3.27323 4.26764 3.54783 4.54223L5.53659 6.53095C5.81114 6.80555 6.25641 6.80555 6.53095 6.53095C6.80555 6.25636 6.80555 5.81119 6.53095 5.53659ZM3.5625 11.2969H0.703125C0.314812 11.2969 0 11.6117 0 12C0 12.3883 0.314812 12.7031 0.703125 12.7031H3.5625C3.95081 12.7031 4.26562 12.3883 4.26562 12C4.26562 11.6117 3.95081 11.2969 3.5625 11.2969ZM23.2969 11.2969H20.4375C20.0492 11.2969 19.7344 11.6117 19.7344 12C19.7344 12.3883 20.0492 12.7031 20.4375 12.7031H23.2969C23.6852 12.7031 24 12.3883 24 12C24 11.6117 23.6852 11.2969 23.2969 11.2969ZM20.4522 3.54788C20.1777 3.27328 19.7325 3.27328 19.4578 3.54788L17.469 5.53659C17.1945 5.81114 17.1945 6.25636 17.469 6.53095C17.7436 6.80555 18.1888 6.80555 18.4634 6.53095L20.4522 4.54223C20.7268 4.26769 20.7268 3.82247 20.4522 3.54788ZM12 0C11.6117 0 11.2969 0.314812 11.2969 0.703125V3.5625C11.2969 3.95081 11.6117 4.26562 12 4.26562C12.3883 4.26562 12.7031 3.95081 12.7031 3.5625V0.703125C12.7031 0.314812 12.3883 0 12 0Z"
      fill="black"/>
    <path
      d="M12.0001 8.48438C11.7111 8.48438 11.4167 8.51902 11.1255 8.58722C9.9131 8.8702 8.89811 9.86822 8.59994 11.0706C8.50647 11.4475 8.73621 11.8288 9.11308 11.9223C9.49005 12.0158 9.87133 11.786 9.9648 11.4091C10.1364 10.7174 10.7451 10.1201 11.4457 9.95653C11.6324 9.9128 11.8189 9.89062 12.0001 9.89062C12.3884 9.89062 12.7032 9.57581 12.7032 9.1875C12.7032 8.79919 12.3884 8.48438 12.0001 8.48438Z"
      fill="black"/>
  </g>
  <defs>
  </defs>
</svg>
