<svg width="24" height="24" viewBox="0 0 24 24" fill="none" xmlns="http://www.w3.org/2000/svg">
<path d="M12.7651 15.8259L9.7043 18.8868L9.70422 18.8869L9.70415 18.8869C8.43841 20.1528 6.37875 20.1528 5.11286 18.8869C4.49962 18.2737 4.16197 17.4584 4.16197 16.5912C4.16197 15.7242 4.49961 14.909 5.11265 14.2957L5.11286 14.2955L8.1737 11.2346C8.59626 10.812 8.59626 10.1267 8.17363 9.70415C7.75106 9.28159 7.06581 9.28159 6.64317 9.70415L3.58234 12.7651L3.58169 12.7658C2.56016 13.7877 1.99756 15.1463 1.99756 16.5912C1.99756 18.0365 2.56038 19.3954 3.58241 20.4174C4.63734 21.4723 6.02293 21.9997 7.40858 21.9997C8.79424 21.9997 10.1799 21.4723 11.2347 20.4174L11.2348 20.4173L14.2956 17.3563C14.7181 16.9338 14.7182 16.2485 14.2955 15.8259C13.873 15.4033 13.1878 15.4033 12.7651 15.8259ZM22.0024 7.40843C22.0024 5.96311 21.4395 4.6043 20.4175 3.58226C18.3077 1.47254 14.8749 1.47261 12.7652 3.58226L12.7649 3.58263L9.70415 6.64332C9.28152 7.06588 9.28152 7.7512 9.70415 8.17377C9.80453 8.27443 9.92381 8.35425 10.0551 8.40866C10.1865 8.46306 10.3273 8.49097 10.4694 8.49078C10.7463 8.49078 11.0234 8.38509 11.2346 8.17377L14.2954 5.11308L14.2957 5.11272C15.5615 3.84697 17.6211 3.8469 18.887 5.11272C19.5002 5.72597 19.838 6.5413 19.838 7.40843C19.838 8.2755 19.5003 9.09069 18.8872 9.70393L18.887 9.70415L15.8262 12.7651C15.4036 13.1876 15.4036 13.8729 15.8263 14.2955C15.9266 14.3962 16.0459 14.476 16.1772 14.5304C16.3085 14.5848 16.4493 14.6127 16.5914 14.6125C16.8684 14.6125 17.1454 14.5068 17.3567 14.2955L20.4175 11.2346L20.4182 11.2339C21.4397 10.212 22.0024 8.85339 22.0024 7.40843Z" fill="black"/>
<path d="M8.17538 15.8259C8.27575 15.9265 8.39502 16.0063 8.52634 16.0607C8.65765 16.1151 8.79843 16.1431 8.94057 16.1429C9.21754 16.1429 9.49451 16.0372 9.70583 15.8259L15.8276 9.70407C16.2503 9.2815 16.2503 8.59625 15.8276 8.17361C15.4051 7.75105 14.7198 7.75105 14.2972 8.17361L8.17538 14.2954C7.75274 14.7181 7.75274 15.4033 8.17538 15.8259Z" fill="black"/>
</svg>
