<svg width="512" height="512" viewBox="0 0 512 512" fill="none" xmlns="http://www.w3.org/2000/svg">
<path d="M496 32V176C496 184.844 488.844 192 480 192C471.156 192 464 184.844 464 176V70.624L235.312 299.312C232.188 302.436 228.092 304 224 304C219.908 304 215.812 302.436 212.688 299.312C211.201 297.827 210.022 296.064 209.217 294.123C208.413 292.182 207.998 290.101 207.998 288C207.998 285.899 208.413 283.818 209.217 281.877C210.022 279.936 211.201 278.173 212.688 276.688L441.376 48H336C327.156 48 320 40.844 320 32C320 23.156 327.156 16 336 16H480C488.844 16 496 23.156 496 32ZM432 448V256C432 247.156 424.844 240 416 240C407.156 240 400 247.156 400 256V448C400 456.828 392.828 464 384 464H64C55.172 464 48 456.828 48 448V128C48 119.172 55.172 112 64 112H256C264.844 112 272 104.844 272 96C272 87.156 264.844 80 256 80H64C37.532 80 16 101.532 16 128V448C16 474.468 37.532 496 64 496H384C410.468 496 432 474.468 432 448Z" fill="black"/>
</svg>
