<svg width="16" height="16" viewBox="0 0 16 16" fill="none" xmlns="http://www.w3.org/2000/svg">
<g clip-path="url(#clip0_2538_12780)">
<path d="M8 1C6.54131 1 5.14236 1.57946 4.11091 2.61091C3.07946 3.64236 2.5 5.04131 2.5 6.5C2.5 9.405 7.4 15.55 7.61 15.815C7.65685 15.8734 7.71622 15.9205 7.78372 15.9529C7.85122 15.9853 7.92513 16.0021 8 16.0021C8.07487 16.0021 8.14878 15.9853 8.21628 15.9529C8.28378 15.9205 8.34315 15.8734 8.39 15.815C8.6 15.55 13.5 9.405 13.5 6.5C13.5 5.04131 12.9205 3.64236 11.8891 2.61091C10.8576 1.57946 9.45869 1 8 1ZM8 8C7.60444 8 7.21776 7.8827 6.88886 7.66294C6.55996 7.44318 6.30362 7.13082 6.15224 6.76537C6.00087 6.39991 5.96126 5.99778 6.03843 5.60982C6.1156 5.22186 6.30608 4.86549 6.58579 4.58579C6.86549 4.30608 7.22186 4.1156 7.60982 4.03843C7.99778 3.96126 8.39991 4.00087 8.76537 4.15224C9.13082 4.30362 9.44318 4.55996 9.66294 4.88886C9.8827 5.21776 10 5.60444 10 6C10 6.53043 9.78929 7.03914 9.41421 7.41421C9.03914 7.78929 8.53043 8 8 8Z" fill="#333333"/>
</g>
<defs>
<clipPath id="clip0_2538_12780">
<rect width="16" height="16" fill="white"/>
</clipPath>
</defs>
</svg>
