<svg width="18" height="18" viewBox="0 0 18 18" fill="none" xmlns="http://www.w3.org/2000/svg">
  <path d="M7.75127 9.2455C7.68518 9.21246 7.61323 9.19275 7.53953 9.18752C7.46583 9.18228 7.39182 9.19161 7.32172 9.21497C7.18015 9.26216 7.06313 9.36366 6.9964 9.49713C6.96335 9.56322 6.94365 9.63516 6.93841 9.70887C6.93317 9.78257 6.9425 9.85658 6.96587 9.92668C7.01306 10.0682 7.11455 10.1853 7.24802 10.252L7.75127 9.2455ZM10.7513 10.252C10.8847 10.1853 10.9862 10.0682 11.0334 9.92668C11.0806 9.78511 11.0696 9.6306 11.0029 9.49713C10.9362 9.36366 10.8191 9.26216 10.6776 9.21497C10.536 9.16779 10.3815 9.17877 10.248 9.2455L10.7513 10.252ZM15.1875 7.61275V13.4748H16.3125V7.61275H15.1875ZM12.75 15.9378H5.25002V17.0628H12.75V15.9378ZM2.81252 13.4755V7.61275H1.68752V13.4748L2.81252 13.4755ZM3.71252 5.70475L7.46252 2.617L6.74477 1.74775L2.99477 4.8355L3.71252 5.70475ZM10.5375 2.61625L14.2875 5.704L15.0053 4.83775L11.2553 1.75L10.5375 2.61625ZM7.45727 2.61625C7.89071 2.25833 8.43528 2.06254 8.9974 2.06254C9.55951 2.06254 10.1041 2.25833 10.5375 2.61625L11.2523 1.74775C10.6174 1.22397 9.82005 0.9375 8.99702 0.9375C8.17399 0.9375 7.37662 1.22397 6.74177 1.74775L7.45727 2.61625ZM5.25002 15.9378C4.6003 15.9344 3.97852 15.6731 3.52142 15.2113C3.06432 14.7496 2.80933 14.1252 2.81252 13.4755L1.68752 13.4748C1.68433 14.4228 2.05785 15.3341 2.72593 16.0068C3.39401 16.6796 4.30193 17.0594 5.25002 17.0628V15.9378ZM15.1875 13.4748C15.1907 14.1245 14.9357 14.7496 14.4786 15.2113C14.0215 15.6731 13.3997 15.9344 12.75 15.9378V17.0628C13.6981 17.0594 14.606 16.6796 15.2741 16.0068C15.9422 15.3341 16.3157 14.4228 16.3125 13.4748H15.1875ZM16.3125 7.61275C16.3124 7.08248 16.1952 6.55876 15.9692 6.07905C15.7433 5.59934 15.4141 5.17547 15.0053 4.83775L14.2875 5.704C14.5689 5.93616 14.7956 6.22767 14.9511 6.55765C15.1067 6.88763 15.1875 7.24793 15.1875 7.61275H16.3125ZM2.81252 7.61275C2.81258 7.24793 2.8933 6.88763 3.04889 6.55765C3.20448 6.22767 3.4311 5.93691 3.71252 5.70475L2.99477 4.83775C2.58594 5.17547 2.25678 5.59934 2.03079 6.07905C1.80481 6.55876 1.68759 7.08248 1.68752 7.61275H2.81252ZM7.50002 8.06275H10.5V6.93775H7.50002V8.06275ZM12.1875 9.75025V11.2503H13.3125V9.75025H12.1875ZM10.5 12.9378H7.50002V14.0628H10.5V12.9378ZM5.81252 11.2503V9.75025H4.68752V11.2503H5.81252ZM7.50002 12.9378C7.05247 12.9378 6.62325 12.76 6.30678 12.4435C5.99031 12.127 5.81252 11.6978 5.81252 11.2503H4.68752C4.68752 11.6196 4.76027 11.9853 4.90161 12.3265C5.04295 12.6678 5.25012 12.9778 5.51128 13.239C6.03873 13.7664 6.7541 14.0628 7.50002 14.0628V12.9378ZM12.1875 11.2503C12.1875 11.6978 12.0097 12.127 11.6933 12.4435C11.3768 12.76 10.9476 12.9378 10.5 12.9378V14.0628C11.2459 14.0628 11.9613 13.7664 12.4888 13.239C13.0162 12.7115 13.3125 11.9962 13.3125 11.2503H12.1875ZM10.5 8.06275C10.9476 8.06275 11.3768 8.24054 11.6933 8.55701C12.0097 8.87348 12.1875 9.3027 12.1875 9.75025H13.3125C13.3125 9.00433 13.0162 8.28896 12.4888 7.76151C11.9613 7.23407 11.2459 6.93775 10.5 6.93775V8.06275ZM7.50002 6.93775C6.7541 6.93775 6.03873 7.23407 5.51128 7.76151C4.98384 8.28896 4.68752 9.00433 4.68752 9.75025H5.81252C5.81252 9.3027 5.99031 8.87348 6.30678 8.55701C6.62325 8.24054 7.05247 8.06275 7.50002 8.06275V6.93775ZM7.24877 10.2535L8.07827 10.6683L8.58152 9.66175L7.75202 9.247L7.24877 10.2535ZM9.92252 10.6683L10.752 10.2535L10.2488 9.247L9.41927 9.66175L9.92252 10.6683ZM8.07827 10.6683C8.36469 10.8115 8.67978 10.8861 9.00002 10.8861C9.32026 10.8861 9.6361 10.8115 9.92252 10.6683L9.41927 9.66175C9.2891 9.72684 9.14556 9.76072 9.00002 9.76072C8.85448 9.76072 8.71094 9.72684 8.58077 9.66175L8.07827 10.6683Z" fill="#949494"/>
</svg>
