<!-- Generated by IcoMoon.io -->
<svg version="1.1" xmlns="http://www.w3.org/2000/svg" width="1024" height="1024" viewBox="0 0 1024 1024">
<title></title>
<g id="icomoon-ignore">
</g>
<path d="M993.749 263.128l-237.999-238.001c-33.506-33.505-88.021-33.503-121.532 0l-133.833 133.834c-7.808 7.808-7.808 20.468 0 28.278 7.808 7.808 20.467 7.808 28.275 0l133.837-133.834c17.916-17.917 47.066-17.913 64.977 0l237.999 238.001c17.916 17.913 17.916 47.063 0 64.978l-392.119 392.117c-8.678 8.683-20.215 13.461-32.491 13.461-12.271 0-23.812-4.783-32.486-13.461l-16.371-16.367 91.379-91.379c31.066-31.070 31.066-81.621 0-112.691-31.070-31.070-81.621-31.074-112.691 0l-81.019 81.020-13.12 0.188c-2.383 0.043-4.765 0.132-7.144 0.269l-99.036-99.038c-17.915-17.911-17.915-47.061 0-64.977l131.043-131.042c7.808-7.808 7.808-20.468 0-28.278-7.806-7.806-20.468-7.806-28.276 0l-131.043 131.043c-33.506 33.508-33.506 88.027 0 121.533l80.064 80.060c-24.323 8.452-46.627 22.315-65.315 40.998-32.149 32.149-50.112 74.889-50.584 120.35l-0.148 14.208-195.135 195.14c-7.808 7.808-7.808 20.467 0 28.275 3.905 3.904 9.021 5.858 14.138 5.858s10.235-1.954 14.138-5.858l200.905-200.9c3.698-3.699 5.8-8.704 5.854-13.935l0.232-22.37c0.362-34.935 14.168-67.78 38.873-92.484 24.577-24.576 57.248-38.379 91.998-38.869l21.236-0.299c5.205-0.073 10.176-2.172 13.858-5.854l86.761-86.758c15.475-15.475 40.657-15.475 56.137 0 15.475 15.475 15.475 40.661 0 56.137l-130.137 130.138c-7.81 7.808-7.81 20.467 0 28.275 7.807 7.808 20.466 7.808 28.274 0l10.483-10.483 16.371 16.371c16.755 16.755 38.758 25.131 60.766 25.131 22.003-0.004 44.015-8.38 60.766-25.131l92.89-92.89-51.733 140.092c-15.206 41.19-49.515 72.909-91.767 84.851l-159.928 45.197c-3.288 0.93-6.284 2.688-8.701 5.103l-30.733 30.733c-7.808 7.808-7.808 20.471 0 28.279 3.905 3.904 9.021 5.858 14.138 5.858s10.235-1.954 14.138-5.858l27.048-27.046 154.914-43.78c54.519-15.411 98.782-56.337 118.409-109.483l81.801-221.525 231.65-231.65c33.498-33.508 33.498-88.027-0.009-121.533z"></path>
<path d="M653.346 542.016c3.904 3.904 9.020 5.858 14.135 5.858 5.12 0 10.236-1.954 14.14-5.858l207.514-207.515c7.808-7.808 7.808-20.468 0-28.278-7.808-7.806-20.463-7.806-28.275 0l-207.514 207.514c-7.808 7.808-7.808 20.471 0 28.279zM434.641 379.448l-66.827 66.828c-7.808 7.808-7.808 20.467 0 28.275 3.905 3.904 9.022 5.858 14.138 5.858s10.235-1.954 14.138-5.858l66.826-66.825c7.808-7.808 7.808-20.468 0-28.278-7.808-7.806-20.467-7.806-28.275 0zM450.897 256.697c5.261 0 10.419-2.139 14.135-5.86 3.742-3.755 5.845-8.835 5.862-14.134 0-5.259-2.142-10.417-5.862-14.136-3.716-3.719-8.875-5.858-14.135-5.858-5.257 0-10.415 2.137-14.135 5.858-3.716 3.721-5.858 8.878-5.858 14.136 0 5.278 2.142 10.417 5.858 14.134 3.759 3.737 8.836 5.843 14.135 5.86zM698.505 286.682c-39.155 0-71.010-31.855-71.010-71.008s31.855-71.008 71.010-71.008c39.151 0 71.006 31.855 71.006 71.008s-31.855 71.008-71.006 71.008zM698.505 184.655c-17.105 0-31.023 13.914-31.023 31.019s13.918 31.020 31.023 31.020c17.101 0 31.014-13.914 31.014-31.020s-13.914-31.019-31.014-31.019z"></path>
</svg>
