<svg width="512" height="512" viewBox="0 0 512 512" fill="none" xmlns="http://www.w3.org/2000/svg">
<g clip-path="url(#clip0_1673_10940)">
<path d="M512 257C512 307.531 497 356.672 468.625 399.113C464.77 404.883 458.434 408 451.98 408C448.16 408 444.297 406.91 440.883 404.625C431.699 398.488 429.234 386.066 435.371 376.883C459.336 341.043 472 299.59 472 257C472 238.7 469.71 220.523 465.195 202.984C462.441 192.289 468.883 181.383 479.578 178.629C490.281 175.879 501.18 182.316 503.934 193.012C509.285 213.809 512 235.336 512 257ZM367.734 441.895C334.141 462.242 295.504 473 256 473C136.898 473 40 376.102 40 257C40 137.898 136.898 41 256 41C300.098 41 342.5 54.195 378.629 79.16C387.715 85.438 400.172 83.16 406.453 74.074C412.73 64.988 410.457 52.531 401.367 46.25C358.523 16.648 308.257 1 256 1C187.621 1 123.332 27.629 74.98 75.98C26.63 124.332 0 188.621 0 257C0 325.379 26.629 389.668 74.98 438.02C123.332 486.37 187.621 513 256 513C302.813 513 348.617 500.242 388.46 476.105C397.91 470.383 400.93 458.085 395.207 448.637C389.48 439.187 377.184 436.172 367.734 441.895ZM257.93 314.992C254.762 315.117 251.805 313.992 249.508 311.805L144.762 212.488C136.746 204.887 124.086 205.223 116.488 213.238C108.887 221.254 109.223 233.914 117.238 241.512L221.965 340.812C231.637 350.008 244.148 355 257.406 355C258.117 355 258.828 354.984 259.539 354.957C273.582 354.391 286.48 348.313 295.855 337.84C296.094 337.578 296.32 337.309 296.543 337.031L507.586 74.531C514.508 65.921 513.141 53.332 504.531 46.414C495.926 39.492 483.332 40.859 476.411 49.469L265.78 311.457C263.724 313.613 260.907 314.882 257.929 314.992H257.93Z" fill="black"/>
</g>
<defs>
<clipPath id="clip0_1673_10940">
<rect width="512" height="512" fill="white"/>
</clipPath>
</defs>
</svg>
