<svg width="18" height="18" viewBox="0 0 18 18" fill="none" xmlns="http://www.w3.org/2000/svg">
  <path d="M6.75 12L6.86025 12.5512C6.73924 12.5755 6.61363 12.5592 6.50276 12.505C6.3919 12.4508 6.30194 12.3616 6.24675 12.2513L6.75 12ZM12 6.75L12.2513 6.24675C12.3616 6.30194 12.4508 6.3919 12.505 6.50276C12.5592 6.61363 12.5755 6.73924 12.5512 6.86025L12 6.75ZM5.8125 8.25C5.8125 8.39918 5.75324 8.54226 5.64775 8.64775C5.54226 8.75324 5.39918 8.8125 5.25 8.8125C5.10082 8.8125 4.95774 8.75324 4.85225 8.64775C4.74676 8.54226 4.6875 8.39918 4.6875 8.25H5.8125ZM8.25 4.6875C8.39918 4.6875 8.54226 4.74676 8.64775 4.85225C8.75324 4.95774 8.8125 5.10082 8.8125 5.25C8.8125 5.39918 8.75324 5.54226 8.64775 5.64775C8.54226 5.75324 8.39918 5.8125 8.25 5.8125V4.6875ZM2.8125 8.25C2.8125 8.39918 2.75324 8.54226 2.64775 8.64775C2.54226 8.75324 2.39918 8.8125 2.25 8.8125C2.10082 8.8125 1.95774 8.75324 1.85225 8.64775C1.74676 8.54226 1.6875 8.39918 1.6875 8.25H2.8125ZM8.25 1.6875C8.39918 1.6875 8.54226 1.74676 8.64775 1.85225C8.75324 1.95774 8.8125 2.10082 8.8125 2.25C8.8125 2.39918 8.75324 2.54226 8.64775 2.64775C8.54226 2.75324 8.39918 2.8125 8.25 2.8125V1.6875ZM2.8125 13.0125V14.25H1.6875V13.0125H2.8125ZM14.25 2.8125H13.0125V1.6875H14.25V2.8125ZM6.75 12C6.63975 11.4487 6.63975 11.4488 6.639 11.4488H6.6495L6.7005 11.4375C6.74625 11.4263 6.8175 11.4082 6.9075 11.3813C7.16109 11.3057 7.41002 11.2153 7.653 11.1105C8.42552 10.7844 9.1294 10.3152 9.7275 9.7275L10.5225 10.5225C9.82315 11.2105 8.99991 11.7599 8.09625 12.1418C7.81222 12.2641 7.52122 12.3695 7.22475 12.4575C7.116 12.4897 7.02825 12.5122 6.966 12.5273L6.891 12.5445L6.86925 12.549H6.8625C6.8625 12.549 6.8625 12.549 6.7515 11.9977L6.75 12ZM9.7275 9.7275C10.3143 9.1294 10.7827 8.42581 11.1082 7.65375C11.2128 7.41076 11.303 7.16183 11.3783 6.90825C11.4045 6.8175 11.4232 6.747 11.4345 6.70125C11.4397 6.678 11.4443 6.6615 11.4465 6.651V6.6405L12 6.75L12.5512 6.8625V6.86925L12.5468 6.891C12.543 6.909 12.537 6.93375 12.5295 6.966C12.5145 7.02825 12.4913 7.116 12.4597 7.22475C12.3717 7.5212 12.2663 7.81221 12.144 8.09625C11.7615 9.00011 11.2113 9.82336 10.5225 10.5225L9.7275 9.7275ZM11.7487 7.2525L11.4832 7.11975L11.9858 6.1125L12.2513 6.24525L11.7487 7.2525ZM10.4903 4.509L11.1007 2.98425L12.1455 3.402L11.535 4.9275L10.4903 4.509ZM2.98425 11.1007L4.50975 10.4903L4.9275 11.535L3.402 12.1455L2.98425 11.1007ZM7.1205 11.4832L7.25325 11.7487L6.24675 12.252L6.114 11.9865L7.1205 11.4832ZM4.50975 10.4903C4.99006 10.2981 5.52505 10.2934 6.00863 10.4772C6.49222 10.661 6.88907 11.0206 7.1205 11.4832L6.114 11.9858C6.00863 11.7757 5.8282 11.6128 5.60846 11.5295C5.38871 11.4462 5.14568 11.4476 4.9275 11.535L4.50975 10.4903ZM11.4848 7.1205C11.0217 6.88946 10.6624 6.49277 10.4781 6.00915C10.2939 5.52553 10.2982 4.98958 10.4903 4.509L11.535 4.9275C11.4476 5.14568 11.4454 5.38871 11.5287 5.60846C11.6121 5.8282 11.7749 6.00863 11.985 6.114L11.4848 7.1205ZM13.0125 2.8125C12.8251 2.81245 12.6419 2.8686 12.4867 2.97368C12.3315 3.07876 12.2113 3.22795 12.1418 3.402L11.097 2.98425C11.2501 2.6014 11.5144 2.27322 11.8558 2.04207C12.1973 1.81092 12.6002 1.68742 13.0125 1.6875V2.8125ZM1.6875 13.0125C1.68757 12.6003 1.81114 12.1976 2.04228 11.8563C2.27342 11.515 2.60152 11.2508 2.98425 11.0977L3.402 12.1425C3.22807 12.212 3.07896 12.3321 2.97389 12.4871C2.86881 12.6422 2.8126 12.8252 2.8125 13.0125H1.6875ZM3.75 15.1875C6.78341 15.1875 9.69259 13.9825 11.8375 11.8375C13.9825 9.69259 15.1875 6.78341 15.1875 3.75H16.3125C16.3125 7.08178 14.989 10.2771 12.633 12.633C10.2771 14.989 7.08178 16.3125 3.75 16.3125V15.1875ZM3.75 16.3125C3.20299 16.3125 2.67839 16.0952 2.29159 15.7084C1.9048 15.3216 1.6875 14.797 1.6875 14.25H2.8125C2.8125 14.4986 2.91127 14.7371 3.08709 14.9129C3.2629 15.0887 3.50136 15.1875 3.75 15.1875V16.3125ZM15.1875 3.75C15.1875 3.50136 15.0887 3.2629 14.9129 3.08709C14.7371 2.91127 14.4986 2.8125 14.25 2.8125V1.6875C14.797 1.6875 15.3216 1.9048 15.7084 2.29159C16.0952 2.67839 16.3125 3.20299 16.3125 3.75H15.1875ZM4.6875 8.25C4.68758 7.78208 4.77983 7.31876 4.959 6.8865L5.9985 7.317C5.87584 7.61277 5.81264 7.9298 5.8125 8.25H4.6875ZM4.959 6.8865C5.13812 6.45427 5.40062 6.06155 5.7315 5.73075L6.5265 6.5265C6.30139 6.75305 6.123 7.02164 6.0015 7.317L4.959 6.8865ZM5.7315 5.73075C6.0623 5.39987 6.45427 5.13737 6.8865 4.95825L7.31775 5.99775C7.0224 6.11927 6.75381 6.29765 6.52725 6.52275L5.7315 5.73075ZM6.8865 4.95825C7.31857 4.77942 7.78238 4.68742 8.25 4.6875V5.8125C7.92985 5.81238 7.61282 5.87533 7.317 5.99775L6.8865 4.95825ZM1.6875 8.25C1.68732 7.38782 1.85705 6.53405 2.187 5.7375L3.2265 6.168C2.95304 6.82806 2.81236 7.53554 2.8125 8.25H1.6875ZM2.187 5.7375C2.51749 4.94102 3.00172 4.21748 3.612 3.60825L4.40475 4.40475C3.89973 4.90963 3.4991 5.50904 3.22575 6.16875L2.187 5.7375ZM3.612 3.60825C4.22046 2.99972 4.94267 2.51681 5.7375 2.187L6.168 3.2265C5.50829 3.49985 4.90888 3.90048 4.404 4.4055L3.612 3.60825ZM5.7375 2.187C6.53406 1.85707 7.38782 1.68734 8.25 1.6875V2.8125C7.53605 2.81259 6.8291 2.95327 6.1695 3.2265L5.7375 2.187Z" fill="#ACACAC"/>
</svg>
