<svg width="512" height="512" viewBox="0 0 512 512" fill="none" xmlns="http://www.w3.org/2000/svg">
<path d="M352 496H256C251.757 496 247.687 494.314 244.686 491.314C241.686 488.313 240 484.243 240 480V432C240 423.513 236.629 415.374 230.627 409.373C224.626 403.371 216.487 400 208 400C199.513 400 191.374 403.371 185.373 409.373C179.371 415.374 176 423.513 176 432V480C176 484.243 174.314 488.313 171.314 491.314C168.313 494.314 164.243 496 160 496H64C51.2696 496 39.0606 490.943 30.0589 481.941C21.0571 472.939 16 460.73 16 448V352C16 347.757 17.6857 343.687 20.6863 340.686C23.6869 337.686 27.7565 336 32 336H80C88.4869 336 96.6263 332.629 102.627 326.627C108.629 320.626 112 312.487 112 304C112 295.513 108.629 287.374 102.627 281.373C96.6263 275.371 88.4869 272 80 272H32C27.7565 272 23.6869 270.314 20.6863 267.314C17.6857 264.313 16 260.243 16 256V160C16 147.27 21.0571 135.061 30.0589 126.059C39.0606 117.057 51.2696 112 64 112H144V80C144 63.0261 150.743 46.7475 162.745 34.7452C174.747 22.7428 191.026 16 208 16C224.974 16 241.253 22.7428 253.255 34.7452C265.257 46.7475 272 63.0261 272 80V112H352C364.73 112 376.939 117.057 385.941 126.059C394.943 135.061 400 147.27 400 160V240H432C448.974 240 465.252 246.743 477.255 258.745C489.257 270.748 496 287.026 496 304C496 320.974 489.257 337.252 477.255 349.255C465.252 361.257 448.974 368 432 368H400V448C400 460.73 394.943 472.939 385.941 481.941C376.939 490.943 364.73 496 352 496ZM272 464H352C356.243 464 360.313 462.314 363.314 459.314C366.314 456.313 368 452.243 368 448V352C368 347.757 369.686 343.687 372.686 340.686C375.687 337.686 379.757 336 384 336H432C440.487 336 448.626 332.629 454.627 326.627C460.629 320.626 464 312.487 464 304C464 295.513 460.629 287.374 454.627 281.373C448.626 275.371 440.487 272 432 272H384C379.757 272 375.687 270.314 372.686 267.314C369.686 264.313 368 260.243 368 256V160C368 155.757 366.314 151.687 363.314 148.686C360.313 145.686 356.243 144 352 144H256C251.757 144 247.687 142.314 244.686 139.314C241.686 136.313 240 132.243 240 128V80C240 71.5131 236.629 63.3737 230.627 57.3726C224.626 51.3714 216.487 48 208 48C199.513 48 191.374 51.3714 185.373 57.3726C179.371 63.3737 176 71.5131 176 80V128C176 132.243 174.314 136.313 171.314 139.314C168.313 142.314 164.243 144 160 144H64C59.7565 144 55.6869 145.686 52.6863 148.686C49.6857 151.687 48 155.757 48 160V240H80C96.9739 240 113.253 246.743 125.255 258.745C137.257 270.748 144 287.026 144 304C144 320.974 137.257 337.252 125.255 349.255C113.253 361.257 96.9739 368 80 368H48V448C48 452.243 49.6857 456.313 52.6863 459.314C55.6869 462.314 59.7565 464 64 464H144V432C144 415.026 150.743 398.748 162.745 386.745C174.747 374.743 191.026 368 208 368C224.974 368 241.253 374.743 253.255 386.745C265.257 398.748 272 415.026 272 432V464Z" fill="black"/>
</svg>
