<!-- Generated by IcoMoon.io -->
<svg version="1.1" xmlns="http://www.w3.org/2000/svg" width="1024" height="1024" viewBox="0 0 1024 1024">
<title></title>
<g id="icomoon-ignore">
</g>
<path d="M512 0c-282.982 0-512 228.992-512 512 0 282.978 228.992 512 512 512 282.982 0 512-228.992 512-512 0-282.982-228.992-512-512-512zM496.85 751.638c-28.98 0-51.219-24.262-51.219-51.895 0-28.306 22.914-51.892 51.219-51.892 28.308 0 51.892 23.588 51.892 51.894 0 27.63-22.914 51.893-51.892 51.893zM573.678 489.472c-37.066 28.98-37.742 49.198-37.742 84.242 0 12.807-6.74 27.634-39.762 27.634-27.634 0-37.066-10.11-37.066-45.154 0-57.959 25.609-85.592 45.153-102.44 22.24-18.872 59.983-39.762 59.983-76.154 0-31.004-26.959-45.83-60.657-45.83-68.742 0-53.914 51.896-90.31 51.896-18.196 0-40.436-12.134-40.436-38.416 0-36.392 41.783-90.31 132.768-90.31 86.264 0 143.549 47.852 143.549 111.202s-57.286 109.178-75.482 123.33z"></path>
</svg>
