<svg width="16" height="16" viewBox="0 0 16 16" fill="none" xmlns="http://www.w3.org/2000/svg">
<path d="M1.41613 9.52832C1.5807 9.52832 1.74363 9.45481 1.85116 9.31437L2.08979 9.00442C2.26922 10.0642 2.73035 11.0562 3.42488 11.8764C4.11942 12.6967 5.02178 13.3151 6.03743 13.6669C7.2934 14.1049 8.65947 14.1122 9.92005 13.6876C11.1806 13.263 12.2639 12.4308 12.999 11.3222C13.0794 11.2009 13.1083 11.0526 13.0793 10.9099C13.0504 10.7673 12.9659 10.642 12.8446 10.5616C12.7232 10.4812 12.5749 10.4523 12.4323 10.4813C12.2896 10.5102 12.1644 10.5947 12.084 10.716C11.4835 11.6214 10.5987 12.3011 9.56904 12.6478C8.53941 12.9945 7.42365 12.9884 6.39785 12.6306C5.55226 12.3375 4.80323 11.8181 4.23227 11.1289C3.66131 10.4398 3.29028 9.60725 3.15954 8.7219L3.62913 9.08341C3.74444 9.17217 3.89027 9.21148 4.03456 9.1927C4.17885 9.17393 4.30977 9.0986 4.39853 8.9833C4.48728 8.86799 4.52659 8.72215 4.50781 8.57787C4.48904 8.43358 4.41371 8.30265 4.29841 8.2139L2.99771 7.21273C2.72506 7.00262 2.33721 6.88467 2.09034 7.2067L0.982194 8.64564C0.919673 8.72673 0.881118 8.82371 0.8709 8.92559C0.860682 9.02747 0.87921 9.13018 0.924383 9.22206C0.969556 9.31395 1.03957 9.39135 1.12648 9.44548C1.2134 9.49961 1.31374 9.5283 1.41613 9.52832ZM3.15515 5.4386C3.40695 5.60592 3.74763 5.53679 3.91604 5.28444C4.51681 4.37938 5.40169 3.69999 6.4312 3.35334C7.46072 3.00669 8.57631 3.01251 9.60215 3.36987C10.4477 3.66297 11.1968 4.18235 11.7677 4.87151C12.3387 5.56067 12.7097 6.39321 12.8405 7.27856L12.3709 6.91704C12.3138 6.8731 12.2486 6.84083 12.179 6.82207C12.1095 6.80332 12.0369 6.79846 11.9654 6.80775C11.894 6.81705 11.8251 6.84033 11.7626 6.87626C11.7002 6.91219 11.6454 6.96007 11.6015 7.01716C11.5575 7.07425 11.5253 7.13944 11.5065 7.20901C11.4878 7.27857 11.4829 7.35115 11.4922 7.42259C11.5015 7.49404 11.5248 7.56295 11.5607 7.6254C11.5966 7.68785 11.6445 7.74261 11.7016 7.78655L13.0023 8.78773C13.2799 9.00113 13.659 9.12072 13.9097 8.79376L15.0178 7.35481C15.0617 7.29776 15.094 7.23261 15.1127 7.16309C15.1314 7.09358 15.1363 7.02105 15.127 6.94966C15.1177 6.87826 15.0944 6.8094 15.0585 6.747C15.0226 6.6846 14.9748 6.62988 14.9177 6.58597C14.8606 6.54206 14.7955 6.50982 14.726 6.49109C14.6565 6.47235 14.5839 6.4675 14.5125 6.47679C14.4411 6.48609 14.3723 6.50936 14.3099 6.54527C14.2475 6.58118 14.1928 6.62903 14.1488 6.68609L13.9102 6.99604C13.7308 5.93629 13.2697 4.9443 12.5751 4.12401C11.8806 3.30372 10.9782 2.68531 9.96258 2.33359C8.70663 1.89591 7.34073 1.88872 6.08025 2.31316C4.81977 2.73759 3.73641 3.5695 3.001 4.67771C2.92073 4.79911 2.89188 4.94738 2.92078 5.09002C2.94968 5.23266 3.03396 5.35801 3.15515 5.4386Z" fill="#FF5128"/>
</svg>
