<svg width="22" height="21" viewBox="0 0 22 21" fill="none" xmlns="http://www.w3.org/2000/svg">
<g clip-path="url(#clip0_2287_19652)">
<path d="M21.7312 19.5065L15.475 13.5347C16.6868 12.1058 17.4165 10.2902 17.4165 8.31274C17.4165 3.72953 13.5097 0.000305176 8.70822 0.000305176C3.90677 0.000305176 0 3.72949 0 8.3127C0 12.8959 3.90681 16.6251 8.70826 16.6251C10.7799 16.6251 12.682 15.9287 14.1789 14.7719L20.4351 20.7437C20.6138 20.9143 20.8485 21.0001 21.0831 21.0001C21.3178 21.0001 21.5525 20.9143 21.7312 20.7437C22.0896 20.4016 22.0896 19.8486 21.7312 19.5065ZM8.70826 14.8751C4.91695 14.8751 1.83333 11.9317 1.83333 8.3127C1.83333 4.69372 4.91695 1.75026 8.70826 1.75026C12.4996 1.75026 15.5832 4.69372 15.5832 8.3127C15.5832 11.9317 12.4995 14.8751 8.70826 14.8751Z" fill="#292D32"/>
</g>
<defs>
<clipPath id="clip0_2287_19652">
<rect width="22" height="21" fill="white"/>
</clipPath>
</defs>
</svg>
