<svg width="24" height="24" viewBox="0 0 24 24" fill="none" xmlns="http://www.w3.org/2000/svg">
<path d="M3.97 16.177C4.03967 16.1073 4.12237 16.0521 4.2134 16.0144C4.30442 15.9767 4.40198 15.9573 4.5005 15.9573C4.59902 15.9573 4.69658 15.9767 4.78761 16.0144C4.87863 16.0521 4.96133 16.1073 5.031 16.177C5.10067 16.2467 5.15593 16.3294 5.19363 16.4204C5.23133 16.5114 5.25074 16.609 5.25074 16.7075C5.25074 16.806 5.23133 16.9036 5.19363 16.9946C5.15593 17.0856 5.10067 17.1683 5.031 17.238L3.97 16.177ZM6.762 18.97C6.9027 18.8293 7.09352 18.7503 7.2925 18.7503C7.49148 18.7503 7.6823 18.8293 7.823 18.97C7.9637 19.1107 8.04274 19.3015 8.04274 19.5005C8.04274 19.6995 7.9637 19.8903 7.823 20.031L6.762 18.97ZM21.25 10.5C21.25 8.44457 20.4335 6.47333 18.9801 5.01992C17.5267 3.56652 15.5554 2.75 13.5 2.75V1.25C15.9533 1.25 18.306 2.22455 20.0407 3.95926C21.7754 5.69397 22.75 8.04675 22.75 10.5H21.25ZM13.5 2.75C11.4446 2.75 9.47333 3.56652 8.01992 5.01992C6.56651 6.47333 5.75 8.44457 5.75 10.5H4.25C4.25 8.04675 5.22455 5.69397 6.95926 3.95926C8.69397 2.22455 11.0467 1.25 13.5 1.25V2.75ZM5.75 10.5C5.75 12.5554 6.56651 14.5267 8.01992 15.9801C9.47333 17.4335 11.4446 18.25 13.5 18.25V19.75C11.0467 19.75 8.69397 18.7754 6.95926 17.0407C5.22455 15.306 4.25 12.9533 4.25 10.5H5.75ZM13.5 18.25C15.5554 18.25 17.5267 17.4335 18.9801 15.9801C20.4335 14.5267 21.25 12.5554 21.25 10.5H22.75C22.75 12.9533 21.7754 15.306 20.0407 17.0407C18.306 18.7754 15.9533 19.75 13.5 19.75V18.25ZM3.109 20.891C3.22268 21.0048 3.35767 21.0951 3.50627 21.1567C3.65486 21.2183 3.81414 21.25 3.975 21.25C4.13586 21.25 4.29514 21.2183 4.44373 21.1567C4.59233 21.0951 4.72732 21.0058 4.841 20.892L5.901 21.95C5.38999 22.4608 4.69704 22.7478 3.9745 22.7478C3.25196 22.7478 2.55901 22.4608 2.048 21.95L3.109 20.891ZM3.109 19.159C2.99519 19.2727 2.9049 19.4077 2.8433 19.5563C2.7817 19.7049 2.75 19.8641 2.75 20.025C2.75 20.1859 2.7817 20.3451 2.8433 20.4937C2.9049 20.6423 2.99519 20.7773 3.109 20.891L2.05 21.95C1.53919 21.439 1.25223 20.746 1.25223 20.0235C1.25223 19.301 1.53919 18.608 2.05 18.097L3.109 19.159ZM5.031 17.238L3.108 19.16L2.05 18.099L3.97 16.177L5.031 17.238ZM4.84 20.891L6.762 18.97L7.823 20.031L5.901 21.95L4.84 20.891Z" fill="#28303F"/>
</svg>
