<svg width="512" height="512" viewBox="0 0 512 512" fill="none" xmlns="http://www.w3.org/2000/svg">
<path fill-rule="evenodd" clip-rule="evenodd" d="M149.335 80C125.288 80 102.227 89.5523 85.2236 106.556C68.2203 123.559 58.668 146.62 58.668 170.667V446.293C58.668 450.752 63.8306 453.227 67.3293 450.453L127.66 402.197C138.062 393.872 150.987 389.335 164.311 389.333H362.668C386.714 389.333 409.776 379.781 426.779 362.778C443.782 345.774 453.335 322.713 453.335 298.667V170.667C453.335 146.62 443.782 123.559 426.779 106.556C409.776 89.5523 386.714 80 362.668 80H149.335ZM26.668 170.667C26.668 138.133 39.5917 106.933 62.5962 83.9282C85.6007 60.9238 116.801 48 149.335 48H362.668C395.201 48 426.402 60.9238 449.406 83.9282C472.411 106.933 485.335 138.133 485.335 170.667V298.667C485.335 331.2 472.411 362.401 449.406 385.405C426.402 408.41 395.201 421.333 362.668 421.333H164.311C158.252 421.333 152.364 423.403 147.649 427.179L87.3186 475.435C62.8706 494.997 26.668 477.568 26.668 446.272V170.667Z" fill="black"/>
<path d="M177.068 235.733C177.068 242.806 174.258 249.589 169.257 254.59C164.256 259.59 157.473 262.4 150.401 262.4C143.329 262.4 136.546 259.59 131.545 254.59C126.544 249.589 123.734 242.806 123.734 235.733C123.734 228.661 126.544 221.878 131.545 216.877C136.546 211.876 143.329 209.067 150.401 209.067C157.473 209.067 164.256 211.876 169.257 216.877C174.258 221.878 177.068 228.661 177.068 235.733ZM283.734 235.733C283.734 242.806 280.925 249.589 275.924 254.59C270.923 259.59 264.14 262.4 257.068 262.4C249.995 262.4 243.213 259.59 238.212 254.59C233.211 249.589 230.401 242.806 230.401 235.733C230.401 228.661 233.211 221.878 238.212 216.877C243.213 211.876 249.995 209.067 257.068 209.067C264.14 209.067 270.923 211.876 275.924 216.877C280.925 221.878 283.734 228.661 283.734 235.733ZM390.401 235.733C390.401 242.806 387.592 249.589 382.591 254.59C377.59 259.59 370.807 262.4 363.734 262.4C356.662 262.4 349.879 259.59 344.878 254.59C339.877 249.589 337.068 242.806 337.068 235.733C337.068 228.661 339.877 221.878 344.878 216.877C349.879 211.876 356.662 209.067 363.734 209.067C370.807 209.067 377.59 211.876 382.591 216.877C387.592 221.878 390.401 228.661 390.401 235.733Z" fill="black"/>
</svg>
