<svg width="512" height="512" viewBox="0 0 512 512" fill="none" xmlns="http://www.w3.org/2000/svg">
<path d="M454.398 106.667H241.065C228.265 106.667 219.732 98.1333 219.732 85.3333C219.732 72.5333 228.265 64 241.065 64H454.398C467.198 64 475.732 72.5333 475.732 85.3333C475.732 98.1333 465.065 106.667 454.398 106.667ZM145.065 458.667C138.665 458.667 134.398 456.533 130.132 452.267L44.7984 366.933C36.2651 358.4 36.2651 345.6 44.7984 337.067C53.3318 328.533 66.1318 328.533 74.6651 337.067L159.998 422.4C168.532 430.933 168.532 443.733 159.998 452.267C155.732 456.533 149.332 458.667 145.065 458.667Z" fill="black"/>
<path d="M145.064 458.667C132.264 458.667 123.73 450.133 123.73 437.333V74.6666C123.73 61.8666 132.264 53.3333 145.064 53.3333C157.864 53.3333 166.397 61.8666 166.397 74.6666V437.333C166.397 450.133 155.73 458.667 145.064 458.667ZM411.73 213.333H241.064C228.264 213.333 219.73 204.8 219.73 192C219.73 179.2 228.264 170.667 241.064 170.667H411.73C424.53 170.667 433.064 179.2 433.064 192C433.064 204.8 422.397 213.333 411.73 213.333ZM369.064 320H241.064C228.264 320 219.73 311.467 219.73 298.667C219.73 285.867 228.264 277.333 241.064 277.333H369.064C381.864 277.333 390.397 285.867 390.397 298.667C390.397 311.467 379.73 320 369.064 320ZM326.397 426.667H241.064C228.264 426.667 219.73 418.133 219.73 405.333C219.73 392.533 228.264 384 241.064 384H326.397C339.197 384 347.73 392.533 347.73 405.333C347.73 418.133 337.064 426.667 326.397 426.667Z" fill="black"/>
</svg>
