<svg width="24" height="24" viewBox="0 0 24 24" fill="none" xmlns="http://www.w3.org/2000/svg">
<path d="M21.7492 8.99999C21.6107 9 21.4749 8.96157 21.3569 8.88899L11.9999 3.13049L2.64294 8.88899C2.55902 8.9406 2.46576 8.97518 2.36849 8.99075C2.27121 9.00632 2.17182 9.00257 2.07599 8.97973C1.98016 8.95688 1.88977 8.91539 1.80997 8.85761C1.73018 8.79984 1.66255 8.72691 1.61094 8.64299C1.55933 8.55908 1.52475 8.46582 1.50918 8.36854C1.49361 8.27127 1.49736 8.17188 1.5202 8.07605C1.54304 7.98022 1.58454 7.88982 1.64232 7.81003C1.70009 7.73024 1.77302 7.6626 1.85694 7.61099L11.6069 1.61099C11.725 1.53803 11.8611 1.49939 11.9999 1.49939C12.1388 1.49939 12.2748 1.53803 12.3929 1.61099L22.1429 7.61099C22.2821 7.69653 22.3896 7.82517 22.449 7.97736C22.5084 8.12956 22.5164 8.29698 22.4719 8.45418C22.4275 8.61138 22.3329 8.74976 22.2026 8.84828C22.0722 8.9468 21.9126 9.00007 21.7492 8.99999Z" fill="black"/>
<path d="M20.25 22.5H3.75C3.55109 22.5 3.36032 22.421 3.21967 22.2803C3.07902 22.1397 3 21.9489 3 21.75V9.75C3 9.55109 3.07902 9.36032 3.21967 9.21967C3.36032 9.07902 3.55109 9 3.75 9C3.94891 9 4.13968 9.07902 4.28033 9.21967C4.42098 9.36032 4.5 9.55109 4.5 9.75V21H19.5V9.75C19.5 9.55109 19.579 9.36032 19.7197 9.21967C19.8603 9.07902 20.0511 9 20.25 9C20.4489 9 20.6397 9.07902 20.7803 9.21967C20.921 9.36032 21 9.55109 21 9.75V21.75C21 21.9489 20.921 22.1397 20.7803 22.2803C20.6397 22.421 20.4489 22.5 20.25 22.5Z" fill="black"/>
<path d="M16.8937 11.3625C16.8787 11.3527 12.336 9.07871 12.336 9.07871C12.2318 9.02663 12.1169 8.99951 12.0004 8.99951C11.8839 8.99951 11.769 9.02663 11.6648 9.07871C11.6648 9.07871 7.122 11.3512 7.1055 11.3617C6.99675 11.429 6.907 11.5229 6.84478 11.6346C6.78256 11.7463 6.74993 11.8721 6.75 12V17.25C6.74994 17.3893 6.78871 17.526 6.86197 17.6445C6.93523 17.7631 7.04008 17.8589 7.16475 17.9212L11.6648 20.1712C11.7689 20.2232 11.8836 20.2503 12 20.2503C12.1164 20.2503 12.2312 20.2232 12.3353 20.1712L16.8353 17.9212C16.9599 17.8589 17.0648 17.7631 17.138 17.6445C17.2113 17.526 17.2501 17.3893 17.25 17.25V12C17.2499 11.8721 17.2171 11.7465 17.1547 11.6349C17.0924 11.5233 17.0025 11.4296 16.8937 11.3625ZM12 10.5877L14.823 12L12 13.4115L9.177 12L12 10.5877ZM8.25 13.2127L11.25 14.7127V18.2857L8.25 16.7857V13.2127ZM15.75 16.7857L12.75 18.2857V14.7127L15.75 13.2127V16.7857Z" fill="black"/>
</svg>
