<svg width="512" height="512" viewBox="0 0 512 512" fill="none" xmlns="http://www.w3.org/2000/svg">
<path d="M363.756 275.93H294.186C275.145 275.93 259.662 291.413 259.662 310.454V363.809C259.662 382.849 275.145 398.333 294.186 398.333H363.756C382.797 398.333 398.28 382.849 398.28 363.809V310.454C398.28 291.413 382.797 275.93 363.756 275.93ZM373.172 363.809C373.172 369.04 368.883 373.224 363.756 373.224H294.186C288.955 373.224 284.77 368.935 284.77 363.809V310.454C284.77 305.223 289.059 301.038 294.186 301.038H363.756C368.987 301.038 373.172 305.327 373.172 310.454V363.809Z" fill="black"/>
<path d="M512 178.949C512 176.752 511.477 174.66 510.326 172.776L434.164 38.8656C431.967 34.9947 427.783 32.4839 423.284 32.4839H88.6114C84.1128 32.4839 79.9281 34.8901 77.7311 38.8656L1.67389 172.776C0.627707 174.66 0 176.752 0 178.949C0 208.974 18.0989 234.71 43.9395 246.114V466.962C43.9395 473.867 49.5889 479.516 56.4937 479.516H455.402C462.306 479.516 467.956 473.867 467.956 466.962V247.683C467.956 247.16 467.956 246.741 467.851 246.323C493.796 234.92 512 209.079 512 178.949ZM95.9346 57.6968H415.961L475.488 162.419H36.5116L95.9346 57.6968ZM364.384 187.423C360.409 210.02 340.636 227.178 316.888 227.178C293.139 227.178 273.367 210.02 269.391 187.423H364.384ZM242.714 187.423C238.738 210.02 218.965 227.178 195.217 227.178C171.469 227.178 151.696 210.02 147.616 187.423H242.714ZM25.9452 187.423H121.043C117.067 210.02 97.19 227.178 73.4418 227.178C49.6935 227.282 29.9207 210.02 25.9452 187.423ZM210.91 454.408H138.723V318.928C138.723 309.094 146.674 301.038 156.613 301.038H193.125C202.959 301.038 211.014 308.989 211.014 318.928V454.408H210.91ZM442.848 454.408H236.018V318.928C236.018 295.284 216.768 275.93 193.02 275.93H156.508C132.865 275.93 113.51 295.179 113.51 318.928V454.512H69.0478V252.286C70.5125 252.391 71.9771 252.391 73.4418 252.391C98.7593 252.391 121.148 239.523 134.329 219.959C147.511 239.523 169.899 252.391 195.217 252.391C220.535 252.391 242.818 239.523 256.105 219.959C269.286 239.523 291.675 252.391 316.888 252.391C342.205 252.391 364.489 239.523 377.671 219.959C390.852 239.523 413.241 252.391 438.558 252.391C440.023 252.391 441.383 252.286 442.848 252.286V454.408ZM438.558 227.282C414.81 227.282 395.037 210.125 391.062 187.528H486.159C482.079 210.02 462.306 227.282 438.558 227.282Z" fill="black"/>
</svg>
