<svg width="24" height="24" viewBox="0 0 24 24" fill="none" xmlns="http://www.w3.org/2000/svg">
<path d="M18 7.89655C18 8.14348 17.9186 8.38029 17.7737 8.55489C17.6288 8.7295 17.4322 8.82759 17.2273 8.82759C17.0223 8.82759 16.8258 8.7295 16.6809 8.55489C16.536 8.38029 16.4545 8.14348 16.4545 7.89655H18ZM8.98485 18.1379C9.18979 18.1379 9.38634 18.236 9.53125 18.4106C9.67616 18.5852 9.75758 18.822 9.75758 19.069C9.75758 19.3159 9.67616 19.5527 9.53125 19.7273C9.38634 19.9019 9.18979 20 8.98485 20V18.1379ZM13.1061 7.58621C13.311 7.58621 13.5075 7.6843 13.6525 7.8589C13.7974 8.0335 13.8788 8.27032 13.8788 8.51724C13.8788 8.76417 13.7974 9.00098 13.6525 9.17558C13.5075 9.35018 13.311 9.44828 13.1061 9.44828V7.58621ZM5.89394 9.44828C5.689 9.44828 5.49245 9.35018 5.34754 9.17558C5.20262 9.00098 5.12121 8.76417 5.12121 8.51724C5.12121 8.27032 5.20262 8.0335 5.34754 7.8589C5.49245 7.6843 5.689 7.58621 5.89394 7.58621V9.44828ZM10.0152 12.5517C10.2201 12.5517 10.4166 12.6498 10.5616 12.8244C10.7065 12.999 10.7879 13.2358 10.7879 13.4828C10.7879 13.7297 10.7065 13.9665 10.5616 14.1411C10.4166 14.3157 10.2201 14.4138 10.0152 14.4138V12.5517ZM5.89394 14.4138C5.689 14.4138 5.49245 14.3157 5.34754 14.1411C5.20262 13.9665 5.12121 13.7297 5.12121 13.4828C5.12121 13.2358 5.20262 12.999 5.34754 12.8244C5.49245 12.6498 5.689 12.5517 5.89394 12.5517V14.4138ZM16.4545 7.89655V5.41379H18V7.89655H16.4545ZM15.1667 3.86207H3.83333V2H15.1667V3.86207ZM2.54545 5.41379V16.5862H1V5.41379H2.54545ZM3.83333 18.1379H8.98485V20H3.83333V18.1379ZM2.54545 16.5862C2.54545 16.9977 2.68114 17.3924 2.92266 17.6834C3.16419 17.9744 3.49177 18.1379 3.83333 18.1379V20C3.08189 20 2.36122 19.6403 1.82986 19.0001C1.29851 18.3599 1 17.4916 1 16.5862H2.54545ZM3.83333 3.86207C3.49177 3.86207 3.16419 4.02555 2.92266 4.31656C2.68114 4.60756 2.54545 5.00225 2.54545 5.41379H1C1 4.5084 1.29851 3.64009 1.82986 2.99988C2.36122 2.35967 3.08189 2 3.83333 2V3.86207ZM16.4545 5.41379C16.4545 5.00225 16.3189 4.60756 16.0773 4.31656C15.8358 4.02555 15.5082 3.86207 15.1667 3.86207V2C15.9181 2 16.6388 2.35967 17.1701 2.99988C17.7015 3.64009 18 4.5084 18 5.41379H16.4545ZM13.1061 9.44828H5.89394V7.58621H13.1061V9.44828ZM10.0152 14.4138H5.89394V12.5517H10.0152V14.4138Z" fill="#31394E"/>
<g clip-path="url(#clip0_11199_6765)">
<path d="M14.7806 14.1263C14.7806 14.2175 14.8168 14.3049 14.8813 14.3694C14.9457 14.4338 15.0332 14.4701 15.1243 14.4701C15.2155 14.4701 15.303 14.4338 15.3674 14.3694C15.4319 14.3049 15.4681 14.2175 15.4681 14.1263H14.7806ZM16.1556 16.418C16.1556 16.5091 16.1918 16.5966 16.2563 16.661C16.3207 16.7255 16.4082 16.7617 16.4993 16.7617C16.5905 16.7617 16.678 16.7255 16.7424 16.661C16.8069 16.5966 16.8431 16.5091 16.8431 16.418H16.1556ZM20.7389 15.5013C20.7389 16.6257 20.2923 17.7041 19.4972 18.4991C18.7021 19.2942 17.6238 19.7409 16.4993 19.7409V20.4284C17.8061 20.4284 19.0593 19.9093 19.9833 18.9853C20.9073 18.0613 21.4264 16.808 21.4264 15.5013H20.7389ZM16.4993 19.7409C15.3749 19.7409 14.2966 19.2942 13.5015 18.4991C12.7064 17.7041 12.2598 16.6257 12.2598 15.5013H11.5723C11.5723 16.808 12.0914 18.0613 13.0154 18.9853C13.9394 19.9093 15.1926 20.4284 16.4993 20.4284V19.7409ZM12.2598 15.5013C12.2598 14.3769 12.7064 13.2985 13.5015 12.5035C14.2966 11.7084 15.3749 11.2617 16.4993 11.2617V10.5742C15.1926 10.5742 13.9394 11.0933 13.0154 12.0173C12.0914 12.9413 11.5723 14.1946 11.5723 15.5013H12.2598ZM16.4993 11.2617C17.6238 11.2617 18.7021 11.7084 19.4972 12.5035C20.2923 13.2985 20.7389 14.3769 20.7389 15.5013H21.4264C21.4264 14.1946 20.9073 12.9413 19.9833 12.0173C19.0593 11.0933 17.8061 10.5742 16.4993 10.5742V11.2617ZM17.5306 14.1263C17.5306 14.3408 17.4638 14.5499 17.3394 14.7246C17.215 14.8993 17.0393 15.031 16.8367 15.1012L17.0617 15.7506C17.3994 15.6336 17.6922 15.4143 17.8994 15.1232C18.1067 14.8321 18.2181 14.4837 18.2181 14.1263H17.5306ZM15.4681 14.1263C15.4681 13.8528 15.5767 13.5905 15.7701 13.3971C15.9635 13.2037 16.2258 13.0951 16.4993 13.0951V12.4076C16.0435 12.4076 15.6063 12.5886 15.284 12.911C14.9617 13.2333 14.7806 13.6705 14.7806 14.1263H15.4681ZM16.4993 13.0951C16.7729 13.0951 17.0352 13.2037 17.2286 13.3971C17.4219 13.5905 17.5306 13.8528 17.5306 14.1263H18.2181C18.2181 13.6705 18.037 13.2333 17.7147 12.911C17.3924 12.5886 16.9552 12.4076 16.4993 12.4076V13.0951ZM16.1556 15.9596V16.418H16.8431V15.9596H16.1556ZM16.8367 15.1012C16.6484 15.1565 16.4819 15.2687 16.36 15.4224C16.2381 15.5761 16.1667 15.7638 16.1556 15.9596H16.8431C16.845 15.9216 16.8614 15.8856 16.8889 15.8593C16.9366 15.8095 16.9958 15.7722 17.0613 15.7506L16.8367 15.1012Z" fill="#31394E"/>
<path fill-rule="evenodd" clip-rule="evenodd" d="M16.8376 15.0985L17.062 15.7475C17.0582 15.7488 17.0543 15.7501 17.0505 15.7515C17.0483 15.7523 17.0461 15.7531 17.0439 15.754C16.9856 15.7762 16.933 15.811 16.8897 15.8561C16.8894 15.8564 16.8891 15.8567 16.8888 15.857C16.8618 15.8833 16.8458 15.9189 16.8439 15.9565V16.4148C16.8439 16.449 16.8388 16.4827 16.829 16.5148C16.8127 16.5684 16.7835 16.6176 16.7432 16.6579C16.6787 16.7224 16.5913 16.7586 16.5001 16.7586C16.409 16.7586 16.3215 16.7224 16.2571 16.6579C16.2168 16.6176 16.1875 16.5684 16.1712 16.5148C16.1615 16.4827 16.1564 16.449 16.1564 16.4148V15.9565C16.1583 15.9229 16.162 15.8895 16.1674 15.8565C16.1934 15.6972 16.2598 15.5466 16.3608 15.4193C16.4409 15.3183 16.5402 15.2353 16.6523 15.1745C16.6523 15.1745 16.6523 15.1745 16.6523 15.1745C16.6818 15.1584 16.7123 15.1439 16.7435 15.1311C16.7458 15.1302 16.748 15.1292 16.7503 15.1283C16.7508 15.1281 16.7512 15.128 16.7517 15.1278C16.7521 15.1276 16.7524 15.1275 16.7528 15.1273C16.7805 15.1163 16.8089 15.107 16.8376 15.0985C17.0403 15.0283 17.2158 14.8962 17.3402 14.7215C17.4645 14.5468 17.5314 14.3377 17.5314 14.1232C17.5314 14.1232 17.5314 14.1233 17.5314 14.1232C17.5314 13.8497 17.4227 13.5874 17.2293 13.394C17.0359 13.2006 16.7736 13.0919 16.5001 13.0919C16.2266 13.0919 15.9643 13.2006 15.7709 13.394C15.5775 13.5874 15.4689 13.8497 15.4689 14.1232C15.4689 14.1574 15.4638 14.191 15.454 14.2232C15.4377 14.2767 15.4085 14.326 15.3682 14.3662C15.3037 14.4307 15.2163 14.4669 15.1251 14.4669C15.034 14.4669 14.9465 14.4307 14.8821 14.3662C14.8418 14.326 14.8125 14.2767 14.7962 14.2232C14.7865 14.191 14.7814 14.1574 14.7814 14.1232C14.7814 14.0897 14.7824 14.0564 14.7843 14.0232C14.8087 13.6038 14.9861 13.2065 15.2848 12.9078C15.5835 12.6092 15.9808 12.4318 16.4001 12.4073C16.4333 12.4054 16.4667 12.4044 16.5001 12.4044C16.5336 12.4044 16.5669 12.4054 16.6001 12.4073C17.0195 12.4318 17.4168 12.6092 17.7155 12.9078C18.0141 13.2065 18.1915 13.6038 18.216 14.0232C18.2179 14.0564 18.2189 14.0897 18.2189 14.1232C18.2189 14.1566 18.2179 14.1899 18.216 14.2232C18.1972 14.5452 18.0881 14.8562 17.9002 15.1201C17.7319 15.3566 17.5071 15.5457 17.2477 15.671C17.2475 15.6711 17.2478 15.6709 17.2477 15.671C17.1943 15.6968 17.1391 15.72 17.083 15.7403C17.0762 15.7427 17.0689 15.7451 17.062 15.7475C17.062 15.7475 17.0621 15.7475 17.062 15.7475L17.0531 15.7203L16.9967 15.5585L16.8376 15.0985ZM17.1347 15.9341L17.3174 15.8739L17.313 15.8614C17.6118 15.7216 17.8706 15.5066 18.0632 15.2361C18.2945 14.9111 18.4188 14.5221 18.4189 14.1232C18.4189 13.6143 18.2167 13.1263 17.8569 12.7664C17.4971 12.4066 17.009 12.2044 16.5001 12.2044C15.9912 12.2044 15.5032 12.4066 15.1434 12.7664C14.7835 13.1263 14.5814 13.6143 14.5814 14.1232C14.5814 14.2674 14.6387 14.4057 14.7406 14.5077C14.8426 14.6096 14.9809 14.6669 15.1251 14.6669C15.2693 14.6669 15.4076 14.6096 15.5096 14.5077C15.6116 14.4057 15.6689 14.2674 15.6689 14.1232C15.6689 13.9027 15.7565 13.6913 15.9123 13.5354C16.0682 13.3795 16.2797 13.2919 16.5001 13.2919C16.7206 13.2919 16.932 13.3795 17.0879 13.5354C17.2438 13.6913 17.3314 13.9027 17.3314 14.1232C17.3314 14.2961 17.2775 14.4647 17.1773 14.6055C17.0778 14.7452 16.9377 14.8507 16.776 14.9077C16.5503 14.9751 16.3506 15.1103 16.2041 15.295C16.0565 15.481 15.9701 15.7081 15.9567 15.9452L15.9564 16.4148C15.9564 16.5591 16.0137 16.6974 16.1156 16.7993C16.2176 16.9013 16.3559 16.9586 16.5001 16.9586C16.6443 16.9586 16.7826 16.9013 16.8846 16.7993C16.9866 16.6974 17.0439 16.5591 17.0439 16.4148V15.9849C17.064 15.9664 17.0873 15.9518 17.1127 15.9418L17.128 15.9365C17.1302 15.9357 17.1325 15.9349 17.1347 15.9341ZM12.2605 15.4982C12.2605 16.6226 12.7072 17.7009 13.5023 18.496C14.2974 19.2911 15.3757 19.7378 16.5001 19.7378C17.6245 19.7378 18.7029 19.2911 19.498 18.496C20.293 17.7009 20.7397 16.6226 20.7397 15.4982C20.7397 14.3738 20.293 13.2954 19.498 12.5003C18.7029 11.7053 17.6245 11.2586 16.5001 11.2586C15.3757 11.2586 14.2974 11.7053 13.5023 12.5003C12.7072 13.2954 12.2605 14.3738 12.2605 15.4982ZM16.4001 10.5721C15.1296 10.5979 13.9166 11.1138 13.0162 12.0142C12.1157 12.9146 11.5998 14.1276 11.5741 15.3982C11.5734 15.4315 11.573 15.4648 11.573 15.4982C11.573 15.5315 11.5734 15.5649 11.5741 15.5982C11.5998 16.8687 12.1157 18.0817 13.0162 18.9822C13.9166 19.8826 15.1296 20.3985 16.4001 20.4242C16.4334 20.4249 16.4668 20.4253 16.5001 20.4253C16.5335 20.4253 16.5668 20.4249 16.6001 20.4242C17.8707 20.3985 19.0837 19.8826 19.9841 18.9822C20.8845 18.0817 21.4004 16.8687 21.4262 15.5982C21.4269 15.5649 21.4272 15.5315 21.4272 15.4982C21.4272 15.4648 21.4269 15.4315 21.4262 15.3982C21.4004 14.1276 20.8845 12.9146 19.9841 12.0142C19.0837 11.1138 17.8707 10.5979 16.6001 10.5721C16.5668 10.5714 16.5335 10.5711 16.5001 10.5711C16.4668 10.5711 16.4334 10.5714 16.4001 10.5721ZM19.3565 18.3546C20.1141 17.597 20.5397 16.5695 20.5397 15.4982C20.5397 14.4268 20.1141 13.3993 19.3565 12.6418C18.599 11.8842 17.5715 11.4586 16.5001 11.4586C15.4288 11.4586 14.4013 11.8842 13.6437 12.6418C12.8861 13.3993 12.4605 14.4268 12.4605 15.4982C12.4605 16.5695 12.8861 17.597 13.6437 18.3546C14.4013 19.1122 15.4288 19.5378 16.5001 19.5378C17.5715 19.5378 18.599 19.1122 19.3565 18.3546ZM20.1255 19.1236C19.164 20.0851 17.8599 20.6253 16.5001 20.6253C15.1403 20.6253 13.8362 20.0851 12.8747 19.1236C11.9132 18.1621 11.373 16.858 11.373 15.4982C11.373 14.1384 11.9132 12.8343 12.8747 11.8728C13.8362 10.9113 15.1403 10.3711 16.5001 10.3711C17.8599 10.3711 19.164 10.9113 20.1255 11.8728C21.087 12.8343 21.6272 14.1384 21.6272 15.4982C21.6272 16.858 21.087 18.1621 20.1255 19.1236Z" fill="#31394E"/>
<path d="M16.9577 17.7904C16.9577 17.881 16.9308 17.9696 16.8804 18.045C16.8301 18.1204 16.7585 18.1791 16.6747 18.2138C16.591 18.2485 16.4988 18.2576 16.4099 18.2399C16.321 18.2222 16.2394 18.1786 16.1753 18.1145C16.1112 18.0504 16.0675 17.9687 16.0498 17.8798C16.0321 17.7909 16.0412 17.6987 16.0759 17.615C16.1106 17.5312 16.1693 17.4596 16.2447 17.4093C16.3201 17.3589 16.4087 17.332 16.4993 17.332C16.6209 17.332 16.7375 17.3803 16.8234 17.4663C16.9094 17.5522 16.9577 17.6688 16.9577 17.7904Z" fill="#31394E"/>
</g>
<defs>
<clipPath id="clip0_11199_6765">
<rect width="11" height="11" fill="white" transform="translate(11 10)"/>
</clipPath>
</defs>
</svg>
