<svg width="15" height="14" viewBox="0 0 15 14" fill="none" xmlns="http://www.w3.org/2000/svg">
<path d="M1.45833 6.40786C1.18219 6.40863 0.911917 6.48757 0.678771 6.63555C0.445625 6.78352 0.259137 6.99448 0.140884 7.24401C0.0226298 7.49355 -0.0225575 7.77147 0.0105495 8.04562C0.0436565 8.31977 0.153705 8.57894 0.327963 8.79315L4.04273 13.3437C4.17518 13.5082 4.34496 13.6387 4.53797 13.7244C4.73097 13.81 4.94164 13.8484 5.15246 13.8363C5.60335 13.8121 6.01042 13.5709 6.26996 13.1743L13.9865 0.746875C13.9878 0.744799 13.9891 0.742747 13.9904 0.740721C14.0628 0.629552 14.0393 0.409244 13.8899 0.270844C13.8488 0.232838 13.8004 0.203639 13.7477 0.185044C13.6949 0.16645 13.6389 0.158854 13.5831 0.162726C13.5273 0.166597 13.4729 0.181853 13.4232 0.207554C13.3735 0.233255 13.3296 0.268857 13.2941 0.312167C13.2914 0.315573 13.2885 0.318926 13.2856 0.322229L5.50338 9.11497C5.47377 9.14843 5.4378 9.17567 5.39757 9.19511C5.35734 9.21455 5.31365 9.22581 5.26903 9.22822C5.22442 9.23064 5.17977 9.22416 5.13767 9.20917C5.09558 9.19418 5.05689 9.17098 5.02384 9.14091L2.44107 6.79057C2.17283 6.54467 1.82223 6.40814 1.45833 6.40786Z" fill="#4BAE4F"/>
</svg>
