<!-- Generated by IcoMoon.io -->
<svg version="1.1" xmlns="http://www.w3.org/2000/svg" width="1024" height="1024" viewBox="0 0 1024 1024">
<title></title>
<g id="icomoon-ignore">
</g>
<path d="M491.023 0.237c-188.929 8.47-350.473 117.875-432.751 275.27l-1.346 2.829c-38.666 75.043-56.306 147.799-56.402 232.711-0.048 54.495 5.864 96.737 20.501 146.368 48.344 163.913 182.126 297.695 345.562 345.514 80.717 23.6 170.492 27.367 250.112 10.441 153.741-33.542 279.488-132.165 349.026-264.875l1.351-2.83c38.856-75.425 56.402-147.942 56.402-233.664 0-54.209-5.769-94.877-20.548-145.414-47.82-163.436-182.078-297.695-345.514-345.514-52.921-15.495-114.71-23.219-166.393-20.834zM566.733 74.422c99.12 12.968 184.987 55.401 256.216 126.63 37.308 36.555 67.915 79.782 89.918 127.773l1.097 2.671c24.365 51.879 38.587 112.668 38.587 176.778 0 1.311-0.006 2.619-0.018 3.927l0.001-0.2c0 64.841-12.301 122.386-38.57 180.505-23.101 50.662-53.707 93.888-90.943 130.373l-0.073 0.070c-36.555 37.308-79.782 67.915-127.773 89.918l-2.671 1.097c-51.879 24.365-112.668 38.587-176.778 38.587-1.311 0-2.619-0.006-3.927-0.018l0.2 0.001c-1.107 0.010-2.417 0.017-3.727 0.017-64.11 0-124.899-14.221-179.384-39.681l2.606 1.094c-50.662-23.101-93.888-53.707-130.373-90.943l-0.070-0.073c-85.008-85.008-129.586-191.995-129.586-310.948s44.577-225.94 129.586-310.948c70.657-70.657 156.284-113.185 254.737-126.63 26.652-3.624 83.339-3.624 110.944 0zM698.893 344.368c-3.671 2.194-62.456 59.644-130.635 127.726l-123.959 123.721-58.165-57.832c-48.725-48.487-59.644-58.451-67.272-61.265-11.49-4.291-19.881-2.24-31.562 7.772-14.78 12.682-18.975 26.89-11.92 40.478 3.576 6.865 145.081 149.276 154.568 155.569 6.531 4.291 22.408 4.053 29.321-0.524 9.774-6.436 287.014-284.631 290.066-291.067 1.78-3.365 2.826-7.354 2.826-11.588 0-3.932-0.902-7.654-2.51-10.97l0.066 0.15c-9.106-21.741-33.66-32.42-50.824-22.17z"></path>
</svg>
