<svg width="20" height="20" viewBox="0 0 20 20" fill="none" xmlns="http://www.w3.org/2000/svg">
  <g clip-path="url(#clip0_9945_2458)">
    <path d="M7.75 11C9.77418 11 11.6438 11.4086 13.0352 12.1043C14.3816 12.7776 15.5 13.8464 15.5 15.25H14C14 14.7206 13.5514 14.0395 12.3643 13.446C11.2222 12.8749 9.59181 12.5 7.75 12.5V11ZM7.75 11V12.5C5.90819 12.5 4.27782 12.8749 3.13566 13.446C1.94864 14.0395 1.5 14.7206 1.5 15.25H0C0 13.8464 1.11836 12.7776 2.46484 12.1043C3.85618 11.4086 5.72582 11 7.75 11ZM0 15.25H1.5C1.5 15.7794 1.94864 16.4605 3.13566 17.054C4.27782 17.6251 5.90819 18 7.75 18V19.5C5.72582 19.5 3.85618 19.0914 2.46484 18.3957C1.11836 17.7225 0 16.6536 0 15.25ZM14 15.25H15.5C15.5 16.6536 14.3816 17.7225 13.0352 18.3957C11.6438 19.0914 9.77418 19.5 7.75 19.5V18C9.59181 18 11.2222 17.6251 12.3643 17.054C13.5514 16.4605 14 15.7794 14 15.25Z" fill="#1C212D"/>
    <path d="M7.75 0C10.3734 0 12.5 2.12665 12.5 4.75H11C11 2.95507 9.54493 1.5 7.75 1.5V0ZM7.75 0V1.5C5.95507 1.5 4.5 2.95507 4.5 4.75H3C3 2.12665 5.12665 0 7.75 0ZM3 4.75H4.5C4.5 6.54493 5.95507 8 7.75 8V9.5C5.12665 9.5 3 7.37335 3 4.75ZM11 4.75H12.5C12.5 7.37335 10.3734 9.5 7.75 9.5V8C9.54493 8 11 6.54493 11 4.75Z" fill="#1C212D"/>
    <path d="M12.7498 8.99945C12.7228 8.99945 12.6959 8.99913 12.6689 8.99847C12.8122 8.8328 12.947 8.65991 13.073 8.48038C14.4336 8.31845 15.4998 7.14579 15.4998 5.74945C15.4998 4.75033 14.9581 3.83658 14.0992 3.35277C14.0523 3.1384 13.9945 2.9268 13.9261 2.71875C14.386 2.89725 14.803 3.18037 15.1441 3.55173C15.6959 4.15253 15.9998 4.93303 15.9998 5.74945C15.9998 7.54151 14.5418 8.99945 12.7498 8.99945Z" fill="#1C212D"/>
    <path d="M12.7496 9.50025C12.3585 9.50025 11.9814 9.44037 11.627 9.32931C12.0783 8.94676 12.4723 8.4987 12.7943 7.9998C14.0163 7.976 14.9996 6.97795 14.9996 5.75025C14.9996 4.83019 14.4474 4.03911 13.6563 3.69039C13.5506 3.09743 13.3578 2.5346 13.0916 2.01562C15.0024 2.18839 16.4996 3.79447 16.4996 5.75025C16.4996 7.82131 14.8207 9.50025 12.7496 9.50025Z" fill="#1C212D"/>
    <path d="M17.1253 16.2323C17.1759 16.0349 17.2112 15.8354 17.231 15.6344C17.5943 15.4549 17.8868 15.257 18.1029 15.0442C18.3663 14.7847 18.4999 14.5172 18.4999 14.2491C18.4999 13.9811 18.3663 13.7136 18.1029 13.4541C17.8276 13.1829 17.4104 12.9263 16.8964 12.7121C16.674 12.6195 16.4322 12.5339 16.1759 12.4572C15.981 12.2214 15.7599 11.9933 15.5156 11.7754C16.0927 11.8975 16.6255 12.0576 17.0887 12.2506C17.6694 12.4926 18.1287 12.7777 18.4538 13.0979C18.8162 13.4549 18.9999 13.8422 18.9999 14.2491C18.9999 14.6561 18.8162 15.0434 18.4538 15.4003C18.1356 15.7139 17.6887 15.9936 17.1253 16.2323Z" fill="#1C212D"/>
    <path d="M16.2504 17.0601C16.5643 16.5098 16.7391 15.9197 16.7492 15.3055C17.214 15.1071 17.5456 14.8911 17.7518 14.688C17.962 14.4809 17.9996 14.3331 17.9996 14.2492C17.9996 14.1653 17.962 14.0175 17.7518 13.8104C17.5389 13.6007 17.1925 13.3773 16.7038 13.1737C16.4567 13.0708 16.1824 12.9767 15.8847 12.8935C15.3197 12.1662 14.5012 11.5267 13.499 11.0176C14.9402 11.0886 16.2581 11.363 17.2807 11.7891C17.8779 12.0379 18.4101 12.3533 18.8045 12.7418C19.2015 13.1329 19.4996 13.6428 19.4996 14.2492C19.4996 14.8556 19.2015 15.3655 18.8045 15.7566C18.4101 16.1451 17.8779 16.4605 17.2807 16.7093C16.9639 16.8413 16.6188 16.9587 16.2504 17.0601Z" fill="#1C212D"/>
  </g>
  <defs>
    <clipPath id="clip0_9945_2458">
      <rect width="19.5" height="19.5" fill="white"/>
    </clipPath>
  </defs>
</svg>
