<!-- Generated by IcoMoon.io -->
<svg version="1.1" xmlns="http://www.w3.org/2000/svg" width="1024" height="1024" viewBox="0 0 1024 1024">
  <g id="icomoon-ignore">
  </g>
  <path d="M493.227 81.075c-82.739 6.844-152.487 56.457-187.638 126.442l-0.606 1.323c-31.32 62.839-31.32 141.4 0 204.249 38.658 76.809 116.868 128.577 207.17 128.577 27.243 0 53.384-4.715 77.66-13.365l-1.614 0.505c29.331-10.557 54.603-25.638 76.34-44.662l-0.274 0.238c48.195-42.593 78.428-104.557 78.428-173.581 0-27.237-4.709-53.373-13.353-77.632l0.505 1.615c-26.010-75.263-92.515-133.84-170.027-149.647-10.336-2.133-48.249-6.189-51.019-5.508-0.444 0.123-7.435 0.766-15.561 1.445zM553.013 145.041c22.316 6.274 36.101 12.424 53.476 23.923 25.407 16.723 49.933 45.671 61.073 72.051 12.622 29.79 14.031 36.747 14.031 69.957s-1.407 40.164-14.031 69.957c-14.918 35.297-50.301 70.681-85.599 85.599-29.79 12.622-36.747 14.031-69.957 14.031s-40.164-1.407-69.957-14.031c-36.989-15.636-71.89-51.501-87.526-89.983-10.374-25.569-12.178-35.42-12.103-66.383 0.038-23.034 0.605-29.393 3.581-40.447 18.452-68.111 70.605-115.229 141.886-128.258 2.211-0.405 15.24-0.482 28.949-0.161 18.537 0.405 27.824 1.371 36.186 3.742zM481.445 603.873c-140.682 8.522-266.038 85.637-318.711 196-8.343 17.717-15.531 38.475-20.493 60.077l-0.406 2.12c-2.655 12.14-3.496 21.674-3.581 41.013-0.161 28.060 0.728 30.838 11.819 37.348 6.916 4.062 24.367 4.185 32.69 0.243 10.053-4.78 12.663-11.097 14.154-34.098 2.248-34.174 9.287-60.591 23.355-87.205 39.361-74.62 116.995-128.656 213.734-148.798 48.846-10.176 110.608-9.892 159.219 0.803 96.172 21.107 171.52 74.061 210.52 147.994 14.068 26.615 21.107 53.032 23.355 87.205 1.485 22.996 4.1 29.308 14.154 34.098 8.324 3.939 25.774 3.816 32.69-0.243 11.14-6.509 12.017-9.287 11.819-37.348-0.198-28.306-3.052-44.954-12.501-73.175-19.982-59.664-61.913-113.859-119.206-153.984-47.685-33.37-108.397-57.491-169.668-67.383-17.895-2.853-66.58-6.793-77.193-6.236l-25.731 1.568z"></path>
</svg>
