<?xml version="1.0" encoding="utf-8"?>
<!-- Generator: Adobe Illustrator 26.4.1, SVG Export Plug-In . SVG Version: 6.00 Build 0)  -->
<svg version="1.1" id="Layer_1" xmlns="http://www.w3.org/2000/svg" xmlns:xlink="http://www.w3.org/1999/xlink" x="0px" y="0px"
	 viewBox="0 0 24 24" style="enable-background:new 0 0 24 24;" xml:space="preserve">
<style type="text/css">
	.st0{fill:#292D32;}
</style>
<g>
	<path class="st0" d="M10.8,15.2L10.8,15.2c-0.2,0-0.4-0.1-0.5-0.2l-2.4-2.4c-0.3-0.3-0.3-0.8,0-1.1c0.3-0.3,0.8-0.3,1.1,0l1.9,1.9
		l4.3-4.3c0.3-0.3,0.8-0.3,1.1,0c0.3,0.3,0.3,0.8,0,1.1L11.3,15C11.2,15.1,11,15.2,10.8,15.2z"/>
</g>
<g>
	<path class="st0" d="M12,22.8c-0.6,0-1.3-0.2-1.7-0.6l-1.6-1.4c-0.2-0.1-0.6-0.3-0.8-0.3H6.2c-1.5,0-2.7-1.2-2.7-2.7v-1.7
		c0-0.2-0.1-0.6-0.3-0.8l-1.3-1.6c-0.8-1-0.8-2.5,0-3.5l1.4-1.6c0.1-0.2,0.3-0.6,0.3-0.8V6.2c0-1.5,1.2-2.7,2.7-2.7h1.7
		c0.2,0,0.6-0.1,0.8-0.3l1.6-1.4c1-0.8,2.5-0.8,3.5,0l1.6,1.4c0.2,0.1,0.6,0.3,0.8,0.3h1.7c1.5,0,2.7,1.2,2.7,2.7v1.7
		c0,0.2,0.1,0.6,0.3,0.8l1.4,1.6c0.8,1,0.8,2.5,0,3.5l-1.4,1.6c-0.1,0.2-0.3,0.6-0.3,0.8v1.7c0,1.5-1.2,2.7-2.7,2.7h-1.7
		c-0.2,0-0.6,0.1-0.8,0.3l-1.6,1.4C13.3,22.6,12.6,22.8,12,22.8z M6.2,5C5.5,5,5,5.5,5,6.2v1.7c0,0.6-0.3,1.3-0.6,1.7L3,11.2
		c-0.3,0.4-0.3,1.1,0,1.5l1.3,1.6C4.7,14.8,5,15.5,5,16.1v1.7C5,18.5,5.5,19,6.2,19h1.7c0.6,0,1.3,0.3,1.8,0.7l1.6,1.4
		c0.4,0.3,1.1,0.3,1.5,0l1.6-1.4c0.4-0.4,1.2-0.7,1.8-0.7h1.7c0.7,0,1.2-0.5,1.2-1.2v-1.7c0-0.6,0.3-1.3,0.7-1.8l1.4-1.6
		c0.3-0.4,0.3-1.1,0-1.5l-1.4-1.6C19.3,9.2,19,8.5,19,7.9V6.2C19,5.6,18.5,5,17.8,5h-1.7c-0.6,0-1.3-0.3-1.8-0.7L12.8,3
		c-0.4-0.3-1.1-0.3-1.5,0l0,0L9.7,4.4C9.2,4.7,8.5,5,7.9,5H6.2z M10.8,2.5L10.8,2.5L10.8,2.5z"/>
</g>
</svg>
