<svg width="16" height="16" viewBox="0 0 16 16" fill="none" xmlns="http://www.w3.org/2000/svg">
<g clip-path="url(#clip0_2538_12797)">
<path d="M7.9991 0C6.77682 0 5.78241 0.994406 5.78241 2.21669C5.78241 2.32797 5.79088 2.43725 5.80679 2.54419H6.76998C6.74146 2.43736 6.72703 2.32726 6.72704 2.21669C6.72704 1.51525 7.2977 0.944594 7.99913 0.944594C8.70057 0.944594 9.27119 1.51525 9.27119 2.21669C9.27119 2.32726 9.25675 2.43735 9.22826 2.54419H10.1914C10.2074 2.43728 10.2158 2.32797 10.2158 2.21669C10.2157 0.994406 9.22135 0 7.9991 0ZM15.5318 12.5941L14.3465 5.88522C14.1012 4.49659 12.8997 3.48875 11.4896 3.48875H4.5086C3.09854 3.48875 1.89701 4.49659 1.65166 5.88522L0.466412 12.5941C0.316819 13.4409 0.548006 14.3044 1.10063 14.9633C1.65329 15.6222 2.46341 16 3.32338 16H12.6749C13.5349 16 14.345 15.6221 14.8976 14.9633C15.4503 14.3045 15.6814 13.4409 15.5318 12.5941ZM7.61863 11.6352C7.53063 11.7206 7.41282 11.7682 7.29023 11.7681C7.22687 11.7682 7.16416 11.7555 7.10583 11.7308C7.0475 11.7061 6.99475 11.6698 6.95076 11.6243L5.62719 10.2565V11.2958C5.62719 11.5567 5.41573 11.7681 5.15488 11.7681C4.89404 11.7681 4.68257 11.5567 4.68257 11.2958V8.19294C4.68257 7.93209 4.89404 7.72062 5.15488 7.72062C5.41573 7.72062 5.62719 7.93209 5.62719 8.19294V9.23222L6.95076 7.8645C7.13216 7.67706 7.43113 7.67216 7.61863 7.85353C7.80607 8.03494 7.81094 8.33391 7.6296 8.52137L6.4461 9.74438L7.6296 10.9674C7.81098 11.1548 7.80607 11.4538 7.61863 11.6352ZM9.80363 11.7681C8.96985 11.7681 8.29151 11.0898 8.29151 10.256V9.23281C8.29151 8.39903 8.96985 7.72069 9.80363 7.72069C10.2726 7.72069 10.7072 7.93287 10.9961 8.30287C11.1566 8.50847 11.1201 8.80531 10.9144 8.96578C10.7088 9.12631 10.412 9.08972 10.2515 8.88412C10.1429 8.74506 9.97966 8.66525 9.8036 8.66525C9.49066 8.66525 9.23607 8.91984 9.23607 9.23278V10.2559C9.23607 10.5689 9.49066 10.8235 9.8036 10.8235C10.0844 10.8235 10.3184 10.6184 10.3633 10.3501H10.1344C9.8736 10.3501 9.66213 10.1386 9.66213 9.87775C9.66213 9.61691 9.8736 9.40544 10.1344 9.40544H10.8434C11.1043 9.40544 11.3157 9.61691 11.3157 9.87775V10.2559H11.3158C11.3158 11.0898 10.6374 11.7681 9.80363 11.7681Z" fill="black"/>
</g>
<defs>
<clipPath id="clip0_2538_12797">
<rect width="16" height="16" fill="white"/>
</clipPath>
</defs>
</svg>
